<svg xmlns="http://www.w3.org/2000/svg" viewBox="0 0 1924 1920"><defs><style>.cls-1,.cls-3{fill:#fff;}.cls-2{fill:#ff931e;}.cls-3{font-size:361.47px;font-family:GochiHand-Regular, Gochi Hand;}.cls-4{fill:#c31f39;}</style></defs><title>Festival Logo</title><g id="Layer_2" data-name="Layer 2"><g id="Festival_Logo" data-name="Festival Logo"><g id="Festival"><rect id="bg" class="cls-1" width="1920" height="1920"/><g id="paint"><path class="cls-2" d="M295.14,1862.86c-2.27.56-4.06,1.3-3.08,2.53,1.79,2.23,5.65,2,9.24,1.73,10.05-.37,20.2,3,30.13-1.55,16.34-1.39,33-1.13,51.91-5.38C371.26,1858.65,301.16,1861.37,295.14,1862.86Z"/><path class="cls-2" d="M775.44,1808.85c7.18,1.05,12,.37,12.64-3.63.92-5.32-6.69-4.75-13.1-5.13-13.09-.78-20.71,7.89-33.13,7.84-16.43,3-32.33-.26-48.56.38a8.41,8.41,0,0,0-2.11.27c-4.59,1.5-12.26,1.48-10.86,6.3,1.08,3.68,6.72,3.86,11.94,3.29,18.07-2,36.12-4,54.18-6C757.06,1815.07,766,1807.49,775.44,1808.85Z"/><path class="cls-2" d="M865.93,1819.58c-1,.37-1.41,2.84-.51,3.46,6.13,4.3,14.56,1,22,1.25,3.44.12,7-.4,11.41-.68-.1-4.23-3.28-5.5-6.37-6.19A45.67,45.67,0,0,0,865.93,1819.58Z"/><path class="cls-2" d="M742.66,1820.63c-1.45,1-1.44,2,0,2.87,16.46-.43,32.93-.74,54.23-5.79C775,1813.94,758.81,1816.72,742.66,1820.63Z"/><path class="cls-2" d="M891.55,1805.9c-4,.63-7.76,2-11.64,3-12.32-3-22.69,2.93-36.66,3.14,10.72,4.82,19.07,3.63,27.52.41,7.67,3.3,15.58,2,23.29-.74,2.14-.77,5.08-2.36,5.08-3.47C899.17,1805.37,894.83,1805.36,891.55,1805.9Z"/><path class="cls-2" d="M481.75,1849.74c6.84,6.43,16.16,2.34,23.92,2.16C500.18,1846.37,492.5,1846.34,481.75,1849.74Z"/><path class="cls-2" d="M631.28,1832.48l1.23-.08-1.15,1.07.09,4.45h0l-21.34,1.91-39.25,2.53c13.15,6.68,26.25,1,39.3-.06,6.51,3,14.63-.58,21.45,1.14,7.44-.14,14.7-.74,21-3.83,12.67.37,25.55,3,38.86-2.07-5.44-4-11.85-1.55-17-2.46l-13.42-3.56-1.52-.92,1.9-.13-.38,1c13.62-2.83,28.73-.41,41.67-5.94-14.07,0-28.21-2.76-41.79,2.66a34.35,34.35,0,0,0-17.23-1h0l-29.59,1.3-4.49,3.35,21.71,1.52Z"/><path class="cls-2" d="M1829.39,1555.61l.24,1.07-.1,1.08,41.79-5.91C1854.78,1548.57,1842.49,1554.37,1829.39,1555.61Z"/><path class="cls-2" d="M719.85,1823.34c8,3.15,14.94,4.79,22.82.15,0-1,0-1.91,0-2.86C735.52,1821.61,727.89,1820.22,719.85,1823.34Z"/><path class="cls-2" d="M1056.7,1807.93c-2.79.16-6.15-.26-8.24.58-4.72,1.9-16-1.62-14.2,4,2.39,7.68,8.22-3.33,13.37-.83,2.56,1.23,6.1,1.73,9.19,2.56,4.27,1.94,10.36,2.32,11.6-1C1070.23,1808.36,1063.53,1807.46,1056.7,1807.93Z"/><path class="cls-2" d="M769.55,1828.6c6.66,1,9.87,1.46,13.08,1.92,17.73,0,35.28-1,52.4-5.47-12-2.22-24.13-1.54-36.34.35C790,1825.68,781.09,1824.88,769.55,1828.6Z"/><path class="cls-2" d="M438.52,1853.58c-5.95.44-12.21-.42-21,3.7l21-1.35c10.33-.66,20.88-.16,32.24-3.4C459.11,1850.27,448.79,1853.11,438.52,1853.58Z"/><path class="cls-2" d="M1856.68,1618.47c-7.21,0-14.35,0-18,9Z"/><path class="cls-2" d="M1000.9,1811.82c-5.69.55-15.44-1.51-14.61,4.29.81,5.56,9.73,2.4,15.54,1.51a19,19,0,0,0,3.76-1.37c5.13.35,10.56,1.55,14.47-2.51C1014.6,1809.93,1007.66,1811.1,1000.9,1811.82Z"/><path class="cls-2" d="M1905.32,1587.19h0c-9.28,1.09-18.09,2.91-25.54,6.91-2,1-1.83,1.92.2,2.68l29.69-7.09c5.34-.75,10.87-1.33,13.34-5.41C1916.34,1583.76,1910.19,1583.49,1905.32,1587.19Z"/><path class="cls-2" d="M1078.91,1800.12c6.87,1.11,12.27,1.23,18.6-.85C1091.3,1796.39,1086.26,1794.61,1078.91,1800.12Z"/><path class="cls-2" d="M696.46,1836.73c5.86,3.79,12.84,1.93,18.93,0,2.44-.77.58-3-2.53-3.58C705.57,1830.57,699.14,1829.77,696.46,1836.73Z"/><path class="cls-2" d="M966.31,1814.15l.34-.27c-.16-1.7-.32-3.4-.46-5.1,1.71-1.7,8.91,1.7,7.3-3.1-7.18-4.92-16.44-1-24.72-1.21-11.16-2.6-14.22-1.66-13.3,4h0l9.61,4.43h0l0,0c-3.76,1.88-6.18,4.58-2.31,6.43,6.84,3.27,12.67-2.71,19.49-2.43,4.23,2.82,11.69,3.5,13.69.43C978.4,1813.65,970.86,1814.11,966.31,1814.15Z"/><path class="cls-2" d="M1110.32,1798.48c4.64,3,9.06,1.68,16.35,0C1119.39,1795.58,1115.07,1795.73,1110.32,1798.48Z"/><path class="cls-2" d="M1858.4,1598.2c-6,.61-12.6,0-17.17,3.69-4.21.33-8.4.67-12.61,1-.42-.18-.18-.4-.52-.58-.18-2.08-.36-4.14-.53-6.21,0-.22,0-.44,0-.66.18-.2.18-.39.37-.59,6.38-1.44,13.4-2.14,17.46-6.23a23.05,23.05,0,0,0,3.89-.26c5-1.16,12.61,1.35,15-4.45l-10.59,1.33a7.88,7.88,0,0,1-.43-2.44l8.3-5.9,25.43-1.77c11.25-.2,14.47-6.87,22-10.25-13.85-7.28-28.74-7-44.62-1.62l-37.56,5c-.39-.08-.43.29-.79.25v-.06l.79-.19-.85-.15c-.87-3.06-3.25-5.58-7.69-7.37a27.81,27.81,0,0,1,11.32-3c2.45-.87,2.29-1.58-.14-2.15l-29.13,2.2-4.52-.35c1.11-1.06,2.21-2.11,3.3-3.17l38.55-5.39c-.19-.56-.38-1.13-.56-1.69l-38.08,2.46-8.26.31c-4.68-1.15-13.17.51-13.79-3.18-.34-1.92-.6-2.45-.81-3.62,16.59-1.4,33.36-1.5,49.78-4.34l11.9-1.53c.76-1.16-.79-1.51-1.77-2l1.64-.1c0,.72.07,1.43.13,2.15a85.24,85.24,0,0,0,29.65-6.53c15.12-1.86,27.68-6.66,38.32-13.67,9.29-5.25,7.34-12,8.3-18.35,4.3-5.35-2.53-10-.88-15.18h0c4.76-11.83,1-23.34.23-34.95-.72-.92-1.44-1.84-2.14-2.76-4.65-4.08,7.42-9.83-2.17-13.42l.24-1-.23-1c3.69-4.74,5.68-9.36-.82-13.44,1.94-16.19-16.76-11.31-31.26-10.71l-8.91.64L1855,1405.3l-38.55-.39-4.53,2.11h0c-11.33,1.57-23.88-.82-33.85,5.22-11.59-.85-20.34-10.48-34.68-2.89-3.1-2.39-6.09-2.64-9,.48h0l-12,1.37c-3.86-.35-7.35,0-9.64,2.39-2.87-.19-6.19-2.68-8.39.7-2.4,3.67-1.77,6.74,5.05,8-14.2,2.22-29.34.21-42.89,5.31-11.11,2.45-25-7.19-34,4.27L1564,1437c-40.55-3.33-80.3,5.14-120.45,7.81h0c-7,2.52-1.77,8-7.86,10.72h0a18.3,18.3,0,0,0-4.11.87c-2.82.1-7.3,1-8.2.21-10.53-9-23-4.28-35.39-.84h0c-11,6.93-20,.31-29.89-.46-.13-3.63-16.2.44-8.61-6.93,4.18-1.18,9.94.57,13.23-3.35-10.66-.92-20.85.22-31.06,1.49h0c-6.08.44-12.77-.45-17.26,3.56l-21.7-1.51.06,1-1.22.08c.38-.36.78-.71,1.16-1.06,0-1.49-.07-3-.1-4.46h0l21.34-1.91,39.25-2.53c-13.16-6.68-26.26-1-39.3.06-6.51-3-14.62.58-21.45-1.13-7.44.13-14.7.73-21,3.82-12.66-.36-25.54-3-38.86,2.07,5.45,4,11.86,1.55,17,2.46h0l13.43,3.55,1.52.92-1.9.13.38-1c-13.62,2.83-28.73.4-41.66,5.94,14.06,0,28.2,2.75,41.79-2.65a34.26,34.26,0,0,0,17.21.93l29.6-1.3h0l5.35,2.21c-2.27,8-11.06,3.88-17.48,4.16-14.51-.12-29.76-1.34-36.57,11.1,13.09,1.57,25.19-.73,37.23-3.52,6.76-3.75,11.32,1.62,17.34.9,18.53.76,36.79-6.55,55.42-2.94a2.5,2.5,0,0,1-.49,2.28c-1.88,5.49-15.41,5.21-15.58,11.55a304.37,304.37,0,0,0-31.44,2.76c-9.63-1.52-19.46-.37-29.25.47a5.82,5.82,0,0,0-3.87,3.24c0-.32,0-.63,0-.95l3.9-2.29-24.28.55c-24.22-1.44-48.6,1.15-72.91,2h0c-19.13-1.66-38.44,1-57.66,1.5l-21.5,1.63c-21.52-.19-43-.23-64.62,1.76-3.75-.09-7.52.38-11.27.35,5.32-.9,10.62-2.06,16-2.21,10.11.59,18.15-5.63,28.47-4.36,8.06,3.69,15.74,1.92,23.26-1.59,3.37-.07,9.32.32,9.68-.29,2.21-3.87-4.36-3.23-7.34-4.22-2.09-.68-5.34-.15-8-.17h0l-7.42,2.21c-17-7-34.77,1.76-52.08,1.06a9.59,9.59,0,0,0-4.05-.23c-7.31-1.11-12.4,2-18,4.2a9.36,9.36,0,0,0-3.19-.21c-7.12-2.57-14.69-.76-22.15.07-8.65-1.62-17.22-.28-25.77,1.33-8-3.67-16.11-1.57-24.18.93-11.75-2.8-23.83.06-35.77.65a33.64,33.64,0,0,1-21.73,1l-60,1.86-34.91.86c-7-.56-14.15.38-21.09.83,7-.29,14.06-.34,21.09-.83-10.49-4.32-23.77,2.4-34.25-1.92h0c15.64-6,15.65-6.06,8.36-8.64l4.72-2.89c5.4-1.48,11.22,3.37,16.42-1.07a14,14,0,0,0,3-.19l11.31-1.35c-4.53-1.77-7.75-6.4-15.09-2h0c-16.12-6.24-31.85-6.41-46.93,3-.26-1.88-1.16-3.41-4.8-3.53l-7.48-.83c-7.78-5.25-14.58,2.73-22.06,1.51l-4.9-1.93a58.43,58.43,0,0,0-34.47,1.55h0c-4.53.85-10.41-.2-12.69,3.81-8.1-3.4-17.78,2.81-25.88-.56l-8.67,1-16.91,3.32c-4.48-5.6-14.93-6.7-21.51-4.71-21.4,6.45-43.38,1.75-64.6,5.45-17.74-1.16-34.26,4.22-51.51,5.69l-4.49.41a112,112,0,0,0-38.08,5.13c-.17,0-.33,0-.51,0l-4.55-1-29.17,1.22c-7.19-1.92-15.19,1.15-22.42-.49l-4.58.14c-32.54-.56-65.31.44-97.58,4.09-20.53,2.32-42.14,1.83-61.65,8.41-7.32,3.78-8.07,8.6-7.1,13.7-7.08,8.17-8.84,16.73-7.49,25.52-3.6,12.63-4.78,25.09,2.53,37,0,1.85,0,3.7.05,5.56h0c-10.76,3.82-22.66-1.78-33.32,2.86h0c-22.44,1.84-45.4,2.91-59.82,16.87l-4.31,3.14c-3.25,2.36-3.1,5-2.68,7.64-5.63,2.4-11.48,4.72-8.22,10.09,3,2.38.32,6.52,6,8l-.27,7.58c-6.53,8.63-.08,8.93,6.9,8.9.45,1,.28,2,.85,2.92,0,1.63-.09,3.26-.14,4.9h0c-3.13,1.43-3.07,3.27-2.27,5.2q.27,3,.52,6.06c0,1.07.46,2.2-.25,3.16l-16.52,4.09,4.43,2.21,12.61-1c.42.18.18.4.51.59l.54,6.21c0,.22,0,.44,0,.66-.17.2-.18.38-.36.58-6.39,1.44-13.4,2.14-17.46,6.24a22,22,0,0,0-3.89.25c-5,1.16-12.61-1.35-15,4.45l10.59-1.33a8.19,8.19,0,0,1,.43,2.44l-8.31,5.91L37,1706.85h0c-11.24.2-14.46,6.87-22,10.25,13.86,7.28,28.74,7,44.61,1.62l0,0h0l37.59-5c.38.08.42-.29.77-.25v.07l-.78.18.84.16c.87,3.05,3.24,5.58,7.69,7.36a27.77,27.77,0,0,1-11.32,3c-2.44.88-2.28,1.59.13,2.16l29.17-2.2,4.49.35-3.32,3.17-38.52,5.39.54,1.69,38.09-2.46,8.25-.3c4.67,1.14,13.17-.51,13.8,3.17.34,1.92.6,2.45.81,3.62-16.6,1.41-33.36,1.5-49.78,4.34-4,.51-7.93,1-11.9,1.53-.76,1.16.79,1.5,1.76,2l-1.63.1c0-.72-.07-1.43-.13-2.15a85.25,85.25,0,0,0-29.66,6.53h0c-15.12,1.86-27.68,6.65-38.31,13.67h0c-9.28,5.25-7.34,12-8.3,18.34-4.3,5.34,2.52,10,.87,15.19-4.76,11.83-1,23.33-.22,34.94.71.92,1.43,1.83,2.15,2.75,4.64,4.09-7.44,9.84,2.15,13.43l-.23,1,.23,1c-3.68,4.73-5.69,9.36.83,13.45-2,16.18,16.75,11.3,31.25,10.7l8.91-.64L69,1876.7q19.27.19,38.56.39l4.55-2.11c11.33-1.56,23.88.84,33.84-5.21,11.6.85,20.36,10.47,34.7,2.89,3-.43,5.9-2.16,9-.48l12-1.37c3.87.35,7.37,0,9.65-2.39l-1.14-4.33h0c-.4,1.55-1.17,3.15,1.14,4.33,2.87.2,6.19,2.67,8.39-.7,2.4-3.68,1.77-6.74-5.06-8h0c14.2-2.23,29.35-.21,42.9-5.31,11.1-2.44,25,7.19,34-4.27L360,1845c40.54,3.32,80.3-5.15,120.44-7.82,7-2.51,1.75-8,7.87-10.73a18.86,18.86,0,0,0,4.11-.86c2.81-.11,7.29-1,8.2-.21,10.53,9,23,4.27,35.41.83,11-6.93,20-.31,29.89.47.13,3.63,16.2-.45,8.61,6.93-4.18,1.18-9.95-.56-13.24,3.34,10.67.94,20.87-.21,31.06-1.48,6.09-.44,12.78.45,17.27-3.56,1.42-1.15,4-1.75,4.5-3.35l-5.35-2.2c2.28-8,11.07-3.89,17.49-4.17,14.5.12,29.75,1.34,36.57-11.1-13.09-1.58-25.19.73-37.23,3.52-6.76,3.76-11.31-1.62-17.34-.9-18.54-.76-36.79,6.56-55.42,2.94a2.47,2.47,0,0,1,.49-2.28c1.88-5.49,15.41-5.21,15.57-11.55a301.76,301.76,0,0,0,31.46-2.76c9.61,1.51,19.44.37,29.24-.47a5.8,5.8,0,0,0,3.86-3.24c0,.31,0,.63,0,.95l-3.89,2.29,24.28-.55h0c24.23,1.44,48.59-1.16,72.9-2h0c19.14,1.68,38.44-1,57.65-1.5q10.75-.8,21.52-1.63c21.51.2,43,.24,64.6-1.75,3.77.1,7.53-.37,11.29-.35-5.32.9-10.63,2.06-16,2.22-10.11-.6-18.14,5.62-28.46,4.35-8.08-3.69-15.74-1.93-23.28,1.6-3.37.06-9.32-.33-9.66.29-2.22,3.87,4.35,3.21,7.34,4.21,2.08.68,5.32.15,8,.17h0c2.46-.75,4.93-1.48,7.4-2.22,17,7,34.79-1.77,52.1-1.06a9.63,9.63,0,0,0,4,.24c7.33,1.1,12.4-2,18-4.21h0a9.64,9.64,0,0,0,3.19.21c7.12,2.57,14.68.75,22.15-.07,8.65,1.62,17.2.28,25.76-1.33,8,3.67,16.12,1.57,24.19-.93,11.74,2.8,23.82-.06,35.76-.64a33.6,33.6,0,0,1,21.74-1l60-1.86,34.93-.85c6.95.55,14.13-.39,21.07-.85-7,.3-14.06.35-21.07.85,10.47,4.31,23.76-2.41,34.24,1.92.3.37,1,.51,1.41.81-.29.07-.46,0-.74,0l-.67-.83c-15.65,6-15.65,6-8.34,8.64l-4.71,2.87h0c-5.4,1.5-11.22-3.36-16.41,1.08a14.08,14.08,0,0,0-3,.18c-15-3.89-30.61.68-45.9.63-2.93,0-5.42,1.4-3.66,3.54,1,1.27,1.36,4.38,5,2.67,10.29-4.9,24,1.56,33.32-5.48,4.52,1.77,7.73,6.4,15.09,2,16.1,6.23,31.83,6.41,46.93-3,.26,1.88,1.16,3.41,4.78,3.52,2.49.29,5,.56,7.49.84,7.79,5.24,14.57-2.74,22.06-1.51l4.91,1.93a58.58,58.58,0,0,0,34.49-1.56c4.53-.83,10.41.21,12.69-3.8,8.09,3.41,17.77-2.81,25.88.57l8.66-1v0h0l16.93-3.32c4.47,5.61,14.91,6.71,21.5,4.72,21.39-6.44,43.38-1.74,64.59-5.45,17.75,1.15,34.27-4.23,51.52-5.69l4.48-.41a111.76,111.76,0,0,0,38.09-5.12c.17,0,.34,0,.51,0l4.55,1,29.17-1.23c7.19,1.92,15.19-1.15,22.41.49,1.54,0,3.07-.1,4.58-.13,32.55.56,65.32-.45,97.59-4.1,20.53-2.32,42.13-1.83,61.65-8.4,7.32-3.79,8.06-8.61,7.09-13.7,7.09-8.19,8.84-16.75,7.49-25.53,3.62-12.63,4.79-25.09-2.51-37l-.06-5.56c10.76-3.82,22.67,1.79,33.32-2.86h0c22.44-1.85,45.4-2.92,59.82-16.88l4.32-3.15c3.25-2.35,3.09-5,2.68-7.63,5.63-2.4,11.48-4.72,8.22-10.09-3-2.38-.32-6.52-6-8h0c.09-2.52.17-5.05.27-7.58,6.53-8.62.07-8.93-6.9-8.9-.46-1-.29-2-.86-2.91.06-1.64.1-3.28.15-4.91h0c3.14-1.43,3.07-3.27,2.27-5.2q-.26-3-.52-6.06c0-1.07-.46-2.2.27-3.15l16.5-4.1h0l16.92-3.74,17.4-3.58c-.07-.89-.13-1.78-.2-2.68C1872.58,1595.3,1864.25,1593.74,1858.4,1598.2ZM195.72,1564.9c.41,0,.73-.05,1.1-.07-.44.35-.47.77-1.11,1.08C195.66,1565.57,195.76,1565.24,195.72,1564.9ZM1308.59,1789a.82.82,0,0,1,0-.11l.33,0c0,.05-.07.09-.06.14.27.21.64-.11.91,0h0C1309.4,1789,1309,1789,1308.59,1789ZM299,1833.43l.91-.07c-.1.23.05.33,0,.54C299.59,1833.74,299.3,1833.58,299,1833.43Zm1326-384.86-.9.07c.09-.23-.06-.32,0-.53C1624.4,1448.27,1624.7,1448.42,1625,1448.57ZM415.15,1826l.62-.07c.18,0,.28.14.46.18a4.18,4.18,0,0,0-.88.2A3.28,3.28,0,0,1,415.15,1826Zm-247.93-29.71c.08,1,.17,2.1.26,3.17l.53.31-.52,0v-.35a3,3,0,0,0-.31,0c.93-1.11.41-2.17-.06-3.23l.09,0ZM1756.8,1485.74h0c-.09-1.06-.18-2.11-.26-3.17l-.54-.32.52,0,0,.36c.1,0,.21,0,.31,0-.93,1.12-.42,2.16.06,3.21Zm36-50.22-.16-.27h0a11.87,11.87,0,0,0,2.48-.84C1795.12,1434.79,1794,1435.16,1792.82,1435.52Zm58.32,43.24h0v0ZM340.28,1806.88h0l.87-.12a2,2,0,0,0-.26.44Zm1409.16-342.42c-.26.18-.61.22-.86.42-.57-.26-1.45.15-2-.25C1747.52,1464.46,1748.51,1464.56,1749.44,1464.46Zm-165.73,10.66c-.28,0-.57.09-.86.12.11-.16.19-.3.27-.44Zm-662.26,41.39,0,0h.06Zm-660.06,63.8c-.13,0-.27,0-.41,0,.1,0,0-.12.13-.17l0,0v0h0C261.18,1580.21,261.32,1580.21,261.39,1580.31Zm-84,237.06c-.91.18-1.9.07-2.83.17.26-.18.61-.21.86-.42C176,1817.38,176.87,1817,177.39,1817.37ZM1662.6,1701.69l.42,0c-.1,0,0,.11-.13.17h0v0h0C1662.82,1701.79,1662.68,1701.8,1662.6,1701.69Zm9.28-241.2a5.83,5.83,0,0,0-2.68,3.88s-.1,0-.15,0c2.34-.95,2.36-2.46,2.79-3.86C1671.84,1460.48,1671.86,1460.5,1671.88,1460.49Zm-776.4,52,.12-.16c0,.05,0,.11.06.17Zm107.06,253,0,0-.1,0ZM1739,1475.7l-.18-.07-.24-.12h.15c0,.06.12,0,.12,0l0,.11a.07.07,0,0,1,.05,0Zm112.21,3.64c.06.33.12.67.17,1h0c0-.34.19-.7-.18-1Zm-981.68,27.17-.42-.11-8,.62h0c2.7.15,5.48,1.07,8-.62.09-.06.22,0,.31-.09ZM185,1806.31l.16.06.24.13h-.14c0-.06-.11,0-.11,0v-.11a.08.08,0,0,1,0,0S185,1806.35,185,1806.31Zm-112.1-3.07h0Zm181.92,14.39s.1,0,.15,0c-2.34.95-2.36,2.45-2.78,3.86l0,0A5.86,5.86,0,0,0,254.8,1817.63Zm773.72-48.14-.12.16c0-.06,0-.11-.06-.17Zm25.93,6c.14,0,.27.07.41.11l8-.62h0c-2.7-.14-5.47-1.07-8,.62-.09.06-.22,0-.31.09S1054.49,1775.55,1054.45,1775.49Zm549.47-316.86c-.3-.15-.66-.15-1-.28.45-.15.93,0,1.39-.21C1604.23,1458.4,1604,1458.39,1603.92,1458.63Zm-1475.07,389c0-.39,1.12-.75,2.33-1.12l.15.27A11.37,11.37,0,0,0,128.85,1847.6Zm191.23-24.23c.29.15.67.15,1,.29-.46.14-.93,0-1.4.21C319.76,1823.6,320,1823.61,320.08,1823.37Zm1383.77-300.44c-.23-.11-.57-.06-.79-.18l-.2-.12.28,0-.07.14c.25,0,.51-.07.76,0C1703.8,1522.81,1703.88,1522.85,1703.85,1522.93Zm58.43-1.46c-.6,0-1.22.08-1.82.11h0a4.14,4.14,0,0,0,1.82-.11ZM1793,1430h-.9q-.09-.82-.15-1.65c.12,0,.25,0,.37.05A1.76,1.76,0,0,0,1793,1430Zm-10.58-1.67a6.88,6.88,0,0,0-.82-.39l1.49.13C1782.92,1428.24,1782.53,1428.16,1782.38,1428.32ZM1658.69,1436a1.08,1.08,0,0,1,0,.18c0-.06-.12-.11-.17-.17Zm-25,14.64v.14l-.22,0C1633.58,1450.72,1633.68,1450.68,1633.73,1450.62Zm-124.89,5.4h0l-.6.08c-.19,0-.29-.16-.47-.2a3.73,3.73,0,0,0,.88-.19C1508.71,1455.81,1508.77,1455.92,1508.84,1456Zm-84.77,20.8h0c0-.07,0-.14,0-.2h0ZM220.14,1759.07c.23.11.57,0,.8.17l.19.13h-.27l.07-.14c-.25,0-.51.08-.77,0C220.19,1759.19,220.12,1759.15,220.14,1759.07ZM131.05,1852h.89l.15,1.65c-.12,0-.26,0-.37-.06A1.78,1.78,0,0,0,131.05,1852Zm134.26-6v-.18l.17.17Zm24.95-14.64v-.14h.23C290.43,1831.29,290.32,1831.32,290.26,1831.38Zm1601.2-328.89c.06,0,.19,0,.24.06l-.52,0A.86.86,0,0,0,1891.46,1502.49Zm-686.9-9.61-.18,0c0-.1-.11-.1-.1-.18Zm-589.15.13,0,.11H615c0-.05.08-.08.06-.13-.26-.21-.63.11-.91,0h0ZM32.54,1779.51c-.06,0-.19,0-.25-.06l.53,0A.86.86,0,0,0,32.54,1779.51Zm109.08,74.17a4.87,4.87,0,0,0,.8.38l-1.46-.13C141.08,1853.76,141.47,1853.83,141.62,1853.68Zm577.81-64.55.18-.05c0,.1.11.1.11.18Zm1079.33-368.21,1.45.46-1.26.11C1799,1421.23,1798.76,1421.15,1798.76,1420.92Zm-332.76,38,0,0a.28.28,0,0,1,.11,0ZM661.38,1491h0l0-.1v-.17h0A.57.57,0,0,0,661.38,1491Zm-8.85-.53h0c0-.36.17-.72,0-1.07h0C652.5,1489.72,652.51,1490.09,652.53,1490.44Zm-527.3,370.63-1.44-.46,1.26-.1C125,1860.77,125.24,1860.85,125.23,1861.07Zm332.76-38a.06.06,0,0,0,0,0s-.06,0-.1,0Zm355.86-32.83c.08.22.64.08.69.33a7.14,7.14,0,0,1-1-.14C813.65,1790.41,813.73,1790.32,813.85,1790.27Zm448.77.76h0v.26h0A.8.8,0,0,0,1262.62,1791Zm464.57-73.86c.43-.34.45-.75,1.09-1.06,0,.33,0,.66,0,1C1727.86,1717.11,1727.55,1717.16,1727.19,1717.17Zm151.06-144c.08-.09.3-.11.39-.2a4,4,0,0,0,1.4.62C1879.36,1573.53,1878.94,1573.15,1878.25,1573.13Zm-10.66-163.84h0l-8.13.63c-.12.11-.32,0-.44.14-.12-.11-.25-.23-.39-.34l.82.2C1862.31,1411.16,1865,1410.59,1867.59,1409.29Zm-757.1,82.25c-.13,0-.23.14-.34.19-.08-.23-.66-.08-.7-.33A7.62,7.62,0,0,1,1110.49,1491.54Zm-39.64,2-.17,0c0-.09-.18,0-.22-.12C1070.56,1493.53,1070.76,1493.45,1070.85,1493.54Zm-68.78-2.1h0Zm-35.39-2.67c1,2,2.37,2.49,3.58,3.67-6.12.33-12.21.24-18.33.57h0c-.77-.09-1.55,0-2.34,0C954.67,1490.59,959.22,1487.31,966.68,1488.77Zm-207.49-.46c.28-.06.45,0,.74,0l.66.82C760.29,1488.74,759.61,1488.6,759.19,1488.31Zm-136.92-3.91h0c0,.07-.15.09-.15.09-.25-.18-.71-.11-1-.31C621.48,1484.31,622,1484.2,622.27,1484.4Zm-411.94,21.51c-.15,0-.15.08-.29.11l.11-.1A.29.29,0,0,1,210.33,1505.91Zm-164.59,203c-.07.09-.29.1-.38.19a4.26,4.26,0,0,0-1.37-.6C44.66,1708.48,45.07,1708.86,45.74,1708.87ZM56.4,1872.7h0l8.14-.61c.12-.11.32,0,.45-.15.12.12.25.23.39.35-.28-.08-.56-.14-.84-.2C61.69,1870.84,59,1871.41,56.4,1872.7Zm796.74-84.24.17,0c0,.1.2,0,.24.12C853.45,1788.48,853.24,1788.55,853.14,1788.46Zm68.8,2.09h0Zm35.39,2.68c-1-2-2.38-2.5-3.59-3.67,6.11-.33,12.22-.25,18.33-.57h0c.79.09,1.57,0,2.34,0C969.33,1791.41,964.77,1794.7,957.33,1793.23Zm344.41,4.37c0-.07.16-.09.16-.09.24.18.68.11.93.3C1302.51,1797.69,1302,1797.8,1301.74,1797.6Zm411.93-21.51c.15,0,.15-.08.28-.1a.48.48,0,0,1-.11.08A.18.18,0,0,1,1713.67,1776.09Z"/><path class="cls-2" d="M1628.86,1419.14c2.26-.57,4.07-1.3,3.09-2.53-1.81-2.24-5.66-2-9.25-1.73-10,.38-20.21-3-30.13,1.55-16.35,1.39-33,1.12-51.91,5.38C1552.74,1423.35,1622.84,1420.63,1628.86,1419.14Z"/><path class="cls-2" d="M1148.56,1473.14c-7.19-1-12-.35-12.65,3.64-.92,5.32,6.7,4.75,13.09,5.13,13.11.79,20.73-7.89,33.14-7.84,16.45-3,32.33.26,48.56-.38a8.29,8.29,0,0,0,2.11-.27c4.59-1.5,12.26-1.48,10.87-6.3-1.08-3.69-6.72-3.86-12-3.29-18.06,2-36.11,4-54.17,6C1166.93,1466.92,1158,1474.51,1148.56,1473.14Z"/><path class="cls-2" d="M1058.06,1462.42c1-.37,1.42-2.83.53-3.46-6.14-4.3-14.56-1-22-1.25-3.43-.12-7,.4-11.41.68.09,4.23,3.29,5.5,6.35,6.19A45.7,45.7,0,0,0,1058.06,1462.42Z"/><path class="cls-2" d="M1181.34,1461.38c7.13-1,14.78.4,22.81-2.73-8-3.14-14.93-4.78-22.82-.15-16.46.43-32.94.75-54.22,5.79C1149,1468.06,1165.18,1465.28,1181.34,1461.38Z"/><path class="cls-2" d="M1125.32,1456.6c8.67-.28,17.59.52,29.13-3.21l-13.07-1.92h0c-17.72,0-35.27,1-52.39,5.48C1101,1459.17,1113.11,1458.5,1125.32,1456.6Z"/><path class="cls-2" d="M839,1475.71c2.93,0,5.42-1.4,3.66-3.54-1-1.27-1.36-4.38-4.94-2.68-10.3,4.9-24.07-1.55-33.32,5.49-4.07-.92-8-1.08-11.31,1.36C808.12,1480.23,823.74,1475.67,839,1475.71Z"/><path class="cls-2" d="M1032.45,1476.11a118,118,0,0,0,11.63-3c12.34,3,22.7-2.93,36.66-3.15-10.72-4.81-19.07-3.62-27.51-.4-7.68-3.3-15.57-2-23.29.74-2.13.77-5.08,2.35-5.09,3.47C1024.84,1476.63,1029.18,1476.63,1032.45,1476.11Z"/><path class="cls-2" d="M1442.25,1432.26c-6.84-6.43-16.16-2.34-23.93-2.17C1423.82,1435.62,1431.5,1435.65,1442.25,1432.26Z"/><path class="cls-2" d="M94.61,1726.39l-.24-1.06.1-1.1-41.8,5.92C69.22,1733.43,81.52,1727.63,94.61,1726.39Z"/><path class="cls-2" d="M867.3,1474.07c2.78-.16,6.14.25,8.23-.59,4.73-1.9,16,1.63,14.2-4-2.39-7.68-8.22,3.33-13.37.84-2.55-1.25-6.09-1.74-9.18-2.58-4.27-1.92-10.37-2.31-11.6,1C853.77,1473.64,860.46,1474.54,867.3,1474.07Z"/><path class="cls-2" d="M1485.47,1428.41c6-.43,12.22.44,21-3.69l-21,1.36c-10.33.65-20.87.15-32.22,3.39C1464.88,1431.73,1475.2,1428.89,1485.47,1428.41Z"/><path class="cls-2" d="M67.31,1663.54c7.22,0,14.36,0,18-9Z"/><path class="cls-2" d="M923.1,1470.18c5.69-.54,15.45,1.5,14.61-4.29-.81-5.56-9.72-2.4-15.55-1.51a20.73,20.73,0,0,0-3.77,1.36c-5.11-.35-10.54-1.53-14.46,2.53C909.39,1472.08,916.32,1470.91,923.1,1470.18Z"/><path class="cls-2" d="M845.09,1481.87c-6.88-1.1-12.27-1.22-18.6.87C832.7,1485.61,837.75,1487.38,845.09,1481.87Z"/><path class="cls-2" d="M1211.15,1448.84h0c7.29,2.57,13.71,3.38,16.38-3.58-5.83-3.79-12.82-1.92-18.9,0-2.45.77-.58,3,2.52,3.58Z"/><path class="cls-2" d="M957.69,1467.86l-.33.26c.15,1.7.3,3.4.46,5.1-1.74,1.7-8.92-1.7-7.32,3.11,7.19,4.91,16.45.94,24.73,1.21,11.15,2.59,14.23,1.65,13.29-4.06h0l-9.6-4.43h0c3.78-1.89,6.2-4.59,2.32-6.44-6.82-3.27-12.65,2.7-19.49,2.43-4.23-2.82-11.68-3.5-13.68-.44C945.58,1468.35,953.15,1467.88,957.69,1467.86Z"/><path class="cls-2" d="M813.67,1483.52c-4.63-3-9-1.68-16.34,0C804.62,1486.42,808.92,1486.27,813.67,1483.52Z"/><path class="cls-2" d="M61.42,1681.63,44,1685.22q-14.85,3.54-29.69,7.08c-5.35.76-10.87,1.34-13.34,5.42,6.66.52,12.81.79,17.69-2.91,9.27-1.09,18.09-2.91,25.54-6.91,7.19-1.19,15.48.35,21.34-4.09h0c6-.61,12.61,0,17.18-3.69a8.26,8.26,0,0,0-4.42-2.2Z"/></g><text class="cls-3" transform="translate(379.01 1742.9) rotate(-1.22)">Festival</text></g><g id="Haarlem_logo" data-name="Haarlem logo"><path d="M996.12,122.09c-7.67,9.31-11.51,18.33-15.69,29.55,9.92,0,20.13-4,31-9.73-5.87,11.4-10.33,26.55-9.13,35.7-8.17-4.16-14.1-7.66-23.74-8.67.35,10.3,2.32,18.79,5.2,28.67-14.95-3.61-29.18-3.5-44-1.11,8.47-9.05,15.54-17.54,21-27.8-10.21-1.53-19.79-.52-31,5a129.88,129.88,0,0,0,10.46-34.8,52,52,0,0,0,23.85,13.73c.46-8.25-1-18.79-4.51-29.54a171.24,171.24,0,0,0,36.54-1Z"/><path class="cls-4" d="M1333.53,628c-10,9.94-14.81,20.55-14.81,31.75,0,21.8,9.69,36.29,9.69,64.19,0,29.84-18.27,60-48.21,89.95-80.12,80.14-208.32,118.27-376.73,118.27-116.21,0-281.18-32.76-345.64-98.06-18-18.21-27.23-42.91-27.23-65.37,0-44.79,35.13-61.74,35.13-96.85,0-20.63-26.62-37.57-100.52-37.57-104.06,0-285.64,70.26-377.67,70.26-30.28,0-63-9.7-83.55-28.46l44.77-51.46c27.88,32.68,57,42.38,100.5,42.38,139.25,0,261.51-82.31,377.71-82.31,42.95,0,69,21.14,69,54.44,0,49.64-35,49.64-35,92,0,76.32,228.74,151.34,434.54,151.34,179.46,0,297.76-65.33,297.76-107.74,0-24.85-8.44-28.45-8.44-56.83,0-44.82,35.14-95.71,74.44-135,39.92-39.93,110.76-47.8,174.91-47.8,100.49,0,230.06,21.77,309.91,21.77,24.24,0,64.18-6,79.93-30.23-15.75,30.23-55.69,69-147.74,69-217.22,0-387.92-22.39-442.73,32.39Z"/><path d="M853.54,164.68c-3.36,23.57,7,29.67,7.81,52.27,13-4.47,47-6.89,57.52-7.86-13.55,5.82-31.76,25.78-45.32,33.13,22.1,13.24,24.46,31.4,35.75,41-12.65-5.07-34.28,2.53-51.41-11.37-1.66,12.65-17.36,42.32-20.92,64.51-8.54-42.19-14.63-52.45-15.7-69.75-23.12,8.81-43.67,2.16-59.42,1.53,19.34-9.67,33.88-14.52,48.14-28.52-13-18.69-16.63-32-25.3-39.24,12.86,4.2,39.7,13.69,47.87,14.8,1.13-23.68,14.05-42.08,21-50.51ZM1115,195.19c-7.46,10.05-17.17,23.33-20.87,44.43,17.6-1.7,40.4,2.18,45.29,6.1-15.59,3.67-35,20-43.54,28.78,6.21,16,10.43,31.81,17.43,57.52-12.42-15.48-25.19-27-40.07-41.86-11.15,16.15-22,34.31-32.23,50.53,2.35-22.28-7.32-41,5.2-59.23-18.56-6.66-38.55-6.66-48-14,22.12-4.16,34-18.28,50.53-19.17,0,0-15.09-37.06-29.29-48.25,19.63,3.92,39,13,49.39,24.75,9-7.52,22.79-26.65,46.12-29.63Z"/><path class="cls-4" d="M763.05,157.36s10.9-32.64,41.11-62.94,63-41.13,101.79-41.13c38.64,0,140.42,13.34,188.8,13.34s60.56-4.85,75-13.34c-3.63,9.7-3.63,13.34-15.71,25.4-19.41,19.41-42.4,25.41-92,25.41-76.24,0-115-3.61-162.18-3.61s-72.7,3.26-94.44,17C782.41,132,763.05,157.36,763.05,157.36Z"/><path d="M802.05,348.59c-.27,12.17,1.15,34,20.3,58.79,2.43-10.89,21.21-6.66,54.67-29.18-8.85,10.29-22,34.52-31.38,46.2,19.75,6,22.15,30.82,39.24,44.44-16.52-9.39-41.09-10.75-51-17.26,5.63,22.25-7.24,46.59-3,67.83-6.5-9.14-21.84-51.68-24.38-53.13-19.17,6.51-42.16,29.46-47.93,27,19.66-21.14,17.86-43.54,28.76-53.21-15.59-.69-42-20.9-49.72-32.19,23.07,6.75,38.2,8.59,55,3.46,0-10.85,1.41-54.8,9.54-62.75Zm280.69,0c-4.92,25.48,1.74,40,0,63.61,8.38-4.23,25.91.62,51.43-5.2-18.24,11.89-32.14,22.78-42.69,35.71,11.68,16.11,12.35,33.06,27,52.3-14.63-7.7-35.82-20.46-47-25.3-6.93,9.11-14.85,26-17.45,54.93-4.66-22.84-12.51-45.23-11.35-68.87-23,6.06-33.24-.55-55.82,3.5q22.7-13.45,45.32-27c-2.79-3.09-13.67-9.78-30.45-59.31,21.34,19,29.49,17.47,53.13,35.74C1055.43,389.22,1070,383.78,1082.74,348.59Z"/><path d="M909.55,381.36c18.12-89.61,50.79-162.22,50.79-162.22,6.06,93.17-14.47,168.27,2.12,332.54h18.31c7.85,0,8.14-8.74,14.82-8.74,5.9,0,13.2,13.35,29.61,13-15.22,11.76-21.84,20.08-27.89,20.08S988.77,570,982.5,570c-13.69,0-21.53,2-33.66,2,0,12.06-.58,29-.58,43.56,0,8.63,11.58,5.48,11.58,14.49,0,6.52-14.94,22.71-17.44,41-8.78-17-23.54-27-23.54-37.43,0-8.94,8.71-7.13,8.71-15.7,0-17.44-3.5-31.93-3.5-44.44,0,0-17.55.38-31.49.38-8.78,0-5.51,13.07-16.41,15.29-7.82-.14-31.39-10.47-31.39-10.47,7.81-4.81,17.53-24.19,25.37-24.19,6.59,0,7.68,6.66,12.72,6.66,0,0,26.92-3.12,32.73-5.51-1.26-3.82-7.28-142.82-6.05-174.29Z"/><path class="cls-4" d="M720.68,400.73s-23,43.61-23,87.28c0,60.51,27.88,96.74,72.63,141.52,29.91,29.91,97.11,71.71,136.81,115,24.65,26.92,43.55,44.83,38.78,74.53,6.63-11.51,9.65-29.7,9.65-47.82,0-40.61-23.94-64.48-56.62-95.9-34.63-33.43-79.22-67-115.26-102.65-39.2-38.82-65.39-83.36-65.39-125.89,0-19.38,2.42-46,2.42-46Z"/><path d="M163.34,1337.59c0,29.11,4.51,42.64,44.63,43.69v13.49H63v-13.49c40.62-2.57,44.63-13.56,44.63-47.18V1147c0-37.58-5.53-50.2-44.63-50.72v-13.49H208v13.49c-37.66,1.57-44.63,9.6-44.63,53.22v74.75h181.1V1149c0-40.69-5.05-51.16-46.15-52.73v-13.49H445.72v13.49c-39.55,2-45.57,10.56-45.57,49.24v189c0,35.63,5.46,44.16,45.57,46.71v13.49H298.29v-13.49c39.13-1.52,46.15-12,46.15-47.64v-86.85H163.34v90.8Zm514.4,31.65c-23.63,21-42.66,31.06-59.21,31.06-19.08,0-28.57-10.56-28.14-31.06-24,18.61-29.6,31.06-59.19,31.06-30.55,0-52.13-20.07-52.13-48.17,0-14,4.58-26.06,13-34.58,10.07-10,25.1-15.09,42.66-20,17.54-5.52,37.09-11.52,55.63-24.61v-16.05c0-35.1-10.42-50.64-34.06-50.64-15.59,0-28.13,9.5-28.13,21,0,4.53,2.56,10.59,5,15.06l-45.63,18.61c-4.48-6.05-6-11-6-15.59,0-24.56,46.58-57.68,90.7-57.68,41.2,0,65.75,20,65.75,56.17v112.38c0,10.5,3,17,10.57,17,6,0,14-4,24.54-13.09l4.56,9.1Zm-87.36-81.79c-53.6,31.59-61.17,34.61-61.17,59.74,0,17.51,9.6,29.55,23.56,29.55,7.51,0,12.56-3,18.14-7,4.9-3.94,9.05-7,19.47-14v-68.26Zm309.13,81.79c-23.56,21-42.62,31.06-59.22,31.06-19,0-28.51-10.56-28.06-31.06-24.06,18.61-29.63,31.06-59.21,31.06-30.55,0-52.14-20.07-52.14-48.17,0-14,4.52-26.06,13.07-34.58,10-10,25.06-15.09,42.65-20,17.52-5.52,37-11.52,55.65-24.61v-16.05c0-35.1-10.58-50.64-34-50.64-15.63,0-28.14,9.5-28.14,21,0,4.53,2.55,10.59,5,15.06l-45.64,18.61c-4.53-6.05-6-11-6-15.59,0-24.56,46.67-57.68,90.78-57.68,41.17,0,65.75,20,65.75,56.17v112.38c0,10.5,3,17,10.48,17,6,0,14-4,24.58-13.09l4.52,9.1Zm-87.27-81.79c-53.69,31.59-61.2,34.61-61.2,59.74,0,17.51,9.63,29.55,23.55,29.55,7.59,0,12.6-3,18.09-7,5-3.94,9-7,19.56-14Zm96.43-67.71v-10l68.72-22.11h12.55v50.17h1c19.54-37.11,31-50.17,44.55-50.17,7.57,0,17.1,6.48,47.24,12.54l-16.58,41.12c-22.63-4.5-37.08-14.08-43.63-14.08-11.52,0-22.1,10.59-32.62,32.13v83.28c0,36.06,9.06,40.14,50.1,39.63v12.49H908.66v-12.49c23.1,0,33.61-8.09,33.61-37.67V1232.29l-33.6-12.55Zm178.64-140.42,71.78-21.18h14.43v287c0,28.56,7.61,37.13,38.22,37.13v12.49H1087.32v-12.49c31.61,0,38.65-10.08,38.65-40.63V1123.4c0-23-2.07-28.56-38.65-31.61v-12.47Zm345.74,265.84c-25.18,37.64-58.3,55.14-101.91,55.14-70.15,0-93.24-54.15-93.24-100.81,0-65.21,43.65-111.83,103.83-111.83,27.08,0,48.65,9,62.12,22.51,23.15,23.09,14.13,46.68,31.68,54.23v14h-150c0,55.67,30.54,92.78,74.75,92.78,21.52,0,42-11.53,63.22-35.11Zm-55.19-80.74c-4.08-41.65-19.08-63.23-44.67-63.23-26.71,0-42.73,21-47.64,63.23Zm82.79-54.65,67.75-22.11h12.54v40.11c41.72-28.09,69.77-40.11,92.23-40.11,24.66,0,40.25,13.52,46.8,41.65,41.56-28.59,71.69-41.65,93.77-41.65,33,0,50.1,25.57,50.1,68.7v85.78c0,24.58,4,40.17,33.16,40.17v12.49H1743.57v-12.49c20.13,0,32.7-7.56,32.7-35.62v-88.77c0-22.63-8-41.65-30.65-41.65-16.63,0-38.19,9.56-63.23,28.07v97.82c0,31.12,9.57,40.16,33.63,40.16v12.48h-113.8v-12.48c21,0,32.57-7.56,32.57-36.14V1262c0-23.62-4-45.66-30.55-45.66-17.13,0-37.19,9-63.28,28.08v98.8c0,31.09,9,39.18,33.12,39.18v12.48H1460.67v-12.48c23.59,0,32.61-11.08,32.61-37.14v-88.32c0-27.54-.93-29.08-32.61-34.67v-12.45Z"/></g></g></g></svg>