<svg xmlns="http://www.w3.org/2000/svg" viewBox="0 0 1923 1823.8"><title>Festival Logo</title><path d="M294.14,1809.58c-2.27.56-4.06,1.29-3.08,2.52,1.79,2.24,5.65,2,9.24,1.74,10.05-.38,20.2,3,30.13-1.55,16.34-1.4,33-1.13,51.91-5.39C370.26,1805.36,300.16,1808.08,294.14,1809.58Z" style="fill:#ff931e"/><path d="M774.44,1755.57c7.18,1,12,.36,12.64-3.63.92-5.33-6.69-4.76-13.1-5.13-13.09-.79-20.71,7.89-33.13,7.84-16.43,3-32.33-.27-48.56.37a8.41,8.41,0,0,0-2.11.27c-4.59,1.5-12.26,1.48-10.86,6.3,1.08,3.69,6.72,3.86,11.94,3.29,18.07-2,36.12-4,54.18-6C756.06,1761.79,765,1754.2,774.44,1755.57Z" style="fill:#ff931e"/><path d="M864.93,1766.3c-1,.36-1.41,2.83-.51,3.45,6.13,4.3,14.56,1,22,1.26,3.44.11,7-.4,11.41-.69-.1-4.22-3.28-5.5-6.37-6.19A45.75,45.75,0,0,0,864.93,1766.3Z" style="fill:#ff931e"/><path d="M741.66,1767.34c-1.45,1-1.44,2,0,2.88,16.46-.44,32.93-.75,54.23-5.8C774,1760.66,757.81,1763.43,741.66,1767.34Z" style="fill:#ff931e"/><path d="M890.55,1752.61a118.92,118.92,0,0,0-11.64,3c-12.32-3-22.69,2.93-36.66,3.15,10.72,4.81,19.07,3.63,27.52.41,7.67,3.29,15.58,2,23.29-.74,2.14-.78,5.08-2.37,5.08-3.47C898.17,1752.08,893.83,1752.08,890.55,1752.61Z" style="fill:#ff931e"/><path d="M480.75,1796.46c6.84,6.43,16.16,2.33,23.92,2.16C499.18,1793.09,491.5,1793.06,480.75,1796.46Z" style="fill:#ff931e"/><path d="M630.28,1779.19l1.23-.07-1.16,1.06c0,1.49.07,3,.1,4.45h0l-21.34,1.91-39.25,2.54c13.15,6.67,26.25,1,39.3-.07,6.51,3,14.63-.58,21.45,1.14,7.44-.14,14.7-.74,21-3.83,12.67.37,25.55,3,38.86-2.07-5.44-4-11.85-1.54-17-2.46l-13.42-3.56-1.52-.91,1.9-.13-.38,1c13.62-2.83,28.73-.4,41.67-5.94-14.07,0-28.21-2.75-41.79,2.66a34.46,34.46,0,0,0-17.23-.94h0l-29.59,1.3-4.49,3.35,21.7,1.51Z" style="fill:#ff931e"/><path d="M1828.39,1502.33l.24,1.06-.1,1.09,41.79-5.91C1853.78,1495.29,1841.49,1501.09,1828.39,1502.33Z" style="fill:#ff931e"/><path d="M718.85,1770.06c8,3.15,14.94,4.79,22.82.15,0-1,0-1.92,0-2.87C734.52,1768.33,726.89,1766.94,718.85,1770.06Z" style="fill:#ff931e"/><path d="M1055.7,1754.65c-2.79.16-6.15-.26-8.24.58-4.72,1.89-16-1.62-14.2,4,2.39,7.69,8.22-3.32,13.37-.83,2.56,1.23,6.1,1.73,9.19,2.57,4.27,1.93,10.36,2.32,11.6-1C1069.23,1755.07,1062.53,1754.18,1055.7,1754.65Z" style="fill:#ff931e"/><path d="M768.55,1775.32c6.66,1,9.87,1.46,13.08,1.92,17.73,0,35.28-1,52.4-5.48-12-2.22-24.13-1.54-36.34.35C789,1772.4,780.09,1771.6,768.55,1775.32Z" style="fill:#ff931e"/><path d="M437.52,1800.3c-5.95.43-12.21-.43-21,3.7l21-1.36c10.33-.65,20.88-.16,32.24-3.39C458.11,1797,447.79,1799.83,437.52,1800.3Z" style="fill:#ff931e"/><path d="M1855.68,1565.18c-7.21,0-14.35,0-18,9Z" style="fill:#ff931e"/><path d="M999.9,1758.53c-5.69.55-15.44-1.5-14.61,4.29.81,5.56,9.73,2.4,15.54,1.51a19,19,0,0,0,3.76-1.36c5.13.34,10.56,1.54,14.47-2.52C1013.6,1756.64,1006.66,1757.81,999.9,1758.53Z" style="fill:#ff931e"/><path d="M1904.32,1533.91h0c-9.28,1.1-18.09,2.91-25.54,6.91-2,1-1.83,1.92.2,2.68l29.69-7.08c5.34-.76,10.87-1.34,13.34-5.41C1915.34,1530.47,1909.19,1530.2,1904.32,1533.91Z" style="fill:#ff931e"/><path d="M1077.91,1746.84c6.87,1.1,12.27,1.23,18.6-.86C1090.3,1743.1,1085.26,1741.33,1077.91,1746.84Z" style="fill:#ff931e"/><path d="M695.46,1783.44c5.86,3.8,12.84,1.93,18.93,0,2.44-.78.57-3-2.53-3.58C704.57,1777.29,698.14,1776.49,695.46,1783.44Z" style="fill:#ff931e"/><path d="M965.31,1760.86l.34-.26c-.16-1.7-.32-3.4-.46-5.11,1.71-1.7,8.91,1.71,7.3-3.1-7.18-4.91-16.44-.94-24.72-1.21-11.16-2.59-14.22-1.65-13.3,4.06h0l9.61,4.42h0c-3.76,1.88-6.18,4.58-2.31,6.44,6.84,3.26,12.67-2.71,19.49-2.43,4.23,2.81,11.69,3.49,13.69.43C977.4,1760.37,969.86,1760.82,965.31,1760.86Z" style="fill:#ff931e"/><path d="M1109.32,1745.19c4.64,3,9.06,1.69,16.35,0C1118.39,1742.29,1114.07,1742.45,1109.32,1745.19Z" style="fill:#ff931e"/><path d="M1857.4,1544.91c-6,.62-12.6,0-17.17,3.69l-12.61,1c-.42-.17-.18-.4-.52-.58q-.27-3.11-.53-6.21c0-.22,0-.44,0-.66.18-.2.18-.39.37-.59,6.38-1.43,13.4-2.14,17.46-6.23a22.06,22.06,0,0,0,3.89-.26c5-1.15,12.61,1.36,15-4.45l-10.59,1.33a7.88,7.88,0,0,1-.43-2.44l8.3-5.9,25.43-1.77c11.25-.2,14.47-6.86,22-10.25-13.85-7.27-28.74-7-44.62-1.61l-37.56,5c-.39-.08-.43.29-.79.25v-.06l.79-.19c-.29,0-.57-.1-.85-.15-.87-3.06-3.25-5.57-7.69-7.37a28,28,0,0,1,11.32-3c2.44-.88,2.29-1.59-.14-2.15l-29.13,2.19-4.52-.35,3.3-3.16,38.55-5.4c-.19-.56-.38-1.12-.56-1.68l-38.08,2.45-8.26.31c-4.68-1.15-13.17.51-13.79-3.18-.34-1.92-.6-2.45-.81-3.61,16.59-1.41,33.36-1.51,49.78-4.34l11.9-1.54c.76-1.16-.79-1.5-1.77-2l1.64-.1c0,.72.07,1.43.13,2.15a85.23,85.23,0,0,0,29.65-6.52c15.12-1.87,27.68-6.66,38.32-13.67,9.29-5.25,7.34-12,8.3-18.36,4.3-5.34-2.53-10-.88-15.17h0c4.76-11.82,1-23.33.23-35-.72-.92-1.44-1.83-2.14-2.75-4.65-4.08,7.42-9.84-2.17-13.42l.24-1-.23-.94c3.69-4.74,5.68-9.36-.82-13.45,1.94-16.19-16.76-11.31-31.26-10.71l-8.91.64L1854,1352l-38.55-.39-4.53,2.11h0c-11.33,1.57-23.88-.83-33.85,5.21-11.59-.85-20.34-10.47-34.68-2.88-3.1-2.39-6.09-2.65-9,.47h0l-12,1.36c-3.86-.34-7.35,0-9.64,2.4-2.87-.2-6.19-2.68-8.39.69-2.4,3.68-1.77,6.74,5.05,8-14.2,2.22-29.34.2-42.89,5.31-11.11,2.44-25-7.19-34,4.27l-68.56,5.09c-40.55-3.32-80.3,5.14-120.45,7.82h0c-7,2.51-1.77,8-7.86,10.72h0a18.87,18.87,0,0,0-4.11.87c-2.82.11-7.3,1-8.2.21-10.53-9-23-4.27-35.39-.84h0c-11,6.92-20,.31-29.89-.46-.13-3.64-16.2.44-8.61-6.93,4.18-1.18,9.94.56,13.23-3.36-10.66-.92-20.85.23-31.06,1.49h0c-6.08.45-12.77-.44-17.26,3.56l-21.7-1.51.06,1-1.22.08,1.16-1.07c0-1.48-.07-3-.1-4.45h0l21.34-1.92,39.25-2.53c-13.16-6.67-26.26-1-39.3.06-6.51-3-14.63.59-21.45-1.13-7.44.13-14.7.74-21,3.83-12.66-.37-25.54-3-38.86,2.07,5.45,4,11.86,1.54,17,2.46h0l13.43,3.55,1.52.92-1.9.13.38-1c-13.62,2.82-28.73.39-41.66,5.93,14.06.06,28.2,2.75,41.78-2.65a34.3,34.3,0,0,0,17.22.94l29.6-1.31h0l5.35,2.21c-2.27,8-11.06,3.88-17.48,4.17-14.51-.13-29.76-1.35-36.57,11.1,13.09,1.57,25.19-.73,37.23-3.52,6.76-3.76,11.32,1.62,17.34.89,18.53.76,36.79-6.55,55.42-2.94a2.52,2.52,0,0,1-.49,2.29c-1.88,5.48-15.41,5.2-15.58,11.54a304.37,304.37,0,0,0-31.44,2.76c-9.63-1.51-19.46-.36-29.25.48a5.79,5.79,0,0,0-3.87,3.23c0-.31,0-.63,0-.94l3.9-2.29-24.28.54c-24.22-1.43-48.6,1.15-72.91,2h0c-19.13-1.66-38.44,1-57.66,1.5l-21.5,1.64c-21.52-.2-43-.23-64.62,1.76-3.75-.1-7.52.37-11.27.35,5.32-.91,10.62-2.06,16-2.22,10.11.6,18.15-5.62,28.47-4.36,8.06,3.69,15.73,1.93,23.26-1.59,3.37-.07,9.32.32,9.68-.29,2.21-3.87-4.36-3.22-7.34-4.21-2.09-.69-5.34-.16-8-.18v0h0l-7.42,2.21c-17-7-34.77,1.76-52.08,1.06a9.93,9.93,0,0,0-4.05-.23c-7.31-1.1-12.4,2-18,4.21a8.89,8.89,0,0,0-3.19-.21c-7.12-2.57-14.69-.76-22.15.06-8.65-1.62-17.22-.27-25.77,1.34-8-3.67-16.11-1.57-24.18.92-11.75-2.8-23.83.06-35.77.65a33.53,33.53,0,0,1-21.74,1l-60,1.87-34.91.85c-7-.55-14.15.38-21.09.84,7-.3,14.06-.35,21.09-.84-10.49-4.32-23.77,2.4-34.25-1.92h0c15.64-6.06,15.65-6.06,8.36-8.64l4.72-2.89c5.4-1.49,11.22,3.37,16.42-1.08a14,14,0,0,0,3-.18l11.31-1.35c-4.53-1.78-7.75-6.41-15.09-2h0c-16.12-6.23-31.85-6.4-46.93,3-.26-1.87-1.16-3.41-4.8-3.52l-7.48-.83c-7.78-5.25-14.58,2.73-22.06,1.5l-4.9-1.92a58.43,58.43,0,0,0-34.47,1.55h0c-4.53.84-10.41-.21-12.69,3.81-8.1-3.41-17.78,2.81-25.88-.57l-8.67,1L603.52,1427c-4.48-5.61-14.93-6.7-21.51-4.72-21.4,6.45-43.38,1.75-64.6,5.45-17.74-1.15-34.26,4.22-51.51,5.69l-4.49.42a111.74,111.74,0,0,0-38.08,5.12c-.17,0-.33,0-.51,0l-4.55-1-29.17,1.22c-7.19-1.92-15.19,1.15-22.42-.48l-4.58.13c-32.54-.56-65.31.44-97.58,4.09-20.53,2.32-42.14,1.83-61.65,8.41-7.32,3.79-8.07,8.6-7.1,13.7-7.08,8.18-8.84,16.74-7.49,25.52-3.6,12.63-4.78,25.1,2.53,37,0,1.85,0,3.7.05,5.56h0c-10.76,3.81-22.66-1.79-33.32,2.86h0c-22.44,1.85-45.4,2.91-59.82,16.88L93.4,1556c-3.25,2.37-3.1,5-2.68,7.64-5.63,2.4-11.48,4.72-8.22,10.1,3,2.38.32,6.52,6,8l-.27,7.58c-6.53,8.63-.08,8.94,6.9,8.91.45,1,.28,2,.85,2.91,0,1.64-.09,3.27-.14,4.9h0c-3.13,1.44-3.07,3.28-2.27,5.2q.27,3,.52,6.07c0,1.07.46,2.19-.25,3.15l-16.52,4.1,4.43,2.21,12.61-1c.42.18.18.4.51.58l.54,6.21c0,.22,0,.44,0,.66-.17.2-.19.39-.36.59-6.39,1.43-13.4,2.14-17.46,6.23a21.14,21.14,0,0,0-3.89.26c-5,1.15-12.61-1.36-15,4.45l10.59-1.34a8.19,8.19,0,0,1,.43,2.44l-8.31,5.91L36,1653.57h0c-11.24.19-14.46,6.86-22,10.25,13.86,7.27,28.74,7,44.61,1.62l0,0h0l37.59-5c.38.08.42-.29.77-.25v.07c-.26.06-.52.11-.78.18l.84.15c.87,3.06,3.24,5.58,7.69,7.37a27.93,27.93,0,0,1-11.32,3c-2.44.87-2.28,1.58.13,2.15l29.17-2.19,4.48.35-3.31,3.17-38.52,5.39.54,1.68,38.09-2.46,8.25-.3c4.67,1.15,13.17-.51,13.8,3.17.34,1.92.6,2.45.81,3.62-16.6,1.41-33.36,1.51-49.78,4.35-4,.5-7.93,1-11.9,1.53-.76,1.16.79,1.5,1.76,2l-1.63.1c0-.71-.07-1.43-.13-2.14a85,85,0,0,0-29.66,6.52h0c-15.12,1.87-27.68,6.66-38.31,13.67h0c-9.28,5.26-7.34,12-8.3,18.35-4.3,5.34,2.52,10,.87,15.18-4.76,11.83-1,23.33-.22,34.95l2.15,2.75c4.64,4.08-7.44,9.83,2.15,13.42l-.23,1,.23,1c-3.68,4.72-5.69,9.36.83,13.44-2,16.19,16.75,11.31,31.25,10.7l8.91-.63L68,1823.41q19.27.21,38.56.39l4.55-2.1c11.33-1.57,23.88.83,33.84-5.21,11.6.85,20.36,10.47,34.7,2.88,3-.42,5.9-2.15,9-.48l12-1.37c3.87.35,7.37.06,9.65-2.39l-1.14-4.32h0c-.4,1.54-1.17,3.14,1.14,4.32,2.87.2,6.19,2.68,8.39-.69,2.4-3.68,1.77-6.75-5.06-8h0c14.2-2.22,29.35-.2,42.9-5.31,11.1-2.44,25,7.19,34-4.27l68.56-5.09c40.54,3.32,80.3-5.15,120.44-7.82,7-2.5,1.75-8,7.87-10.72a19.47,19.47,0,0,0,4.11-.87c2.81-.11,7.29-1,8.2-.21,10.53,9,23,4.28,35.41.83,11-6.92,20-.31,29.89.48.13,3.62,16.2-.45,8.61,6.92-4.18,1.18-9.95-.56-13.24,3.35,10.67.93,20.87-.21,31.06-1.49,6.09-.43,12.78.45,17.27-3.55,1.42-1.16,4-1.76,4.5-3.35l-5.35-2.21c2.28-8,11.07-3.88,17.49-4.16,14.5.11,29.75,1.34,36.56-11.1-13.08-1.59-25.18.72-37.22,3.51-6.76,3.76-11.31-1.62-17.34-.89-18.54-.76-36.79,6.55-55.42,2.93a2.48,2.48,0,0,1,.49-2.28c1.88-5.48,15.41-5.2,15.57-11.54a304.52,304.52,0,0,0,31.46-2.77c9.61,1.52,19.44.38,29.24-.47a5.77,5.77,0,0,0,3.86-3.23c0,.31,0,.62,0,1l-3.89,2.28,24.28-.54h0c24.23,1.43,48.59-1.16,72.9-2h0c19.14,1.67,38.44-1,57.65-1.5l21.52-1.63c21.51.2,43,.24,64.6-1.75,3.77.09,7.53-.38,11.29-.35-5.32.9-10.63,2.06-16,2.21-10.11-.59-18.14,5.63-28.46,4.36-8.08-3.69-15.74-1.93-23.28,1.59-3.37.07-9.32-.33-9.66.29-2.22,3.87,4.35,3.21,7.34,4.22,2.08.67,5.32.15,8,.17h0l7.4-2.21c17,7,34.79-1.77,52.1-1.07a9.47,9.47,0,0,0,4,.24c7.33,1.11,12.4-2,18-4.21h0a9.38,9.38,0,0,0,3.19.21c7.12,2.58,14.68.75,22.15-.06,8.65,1.62,17.2.28,25.76-1.34,8,3.67,16.12,1.57,24.19-.92,11.74,2.79,23.82-.06,35.76-.65a33.67,33.67,0,0,1,21.74-1l60-1.85,34.93-.86c6.95.55,14.13-.38,21.07-.84-7,.3-14.06.35-21.07.84,10.47,4.32,23.76-2.4,34.24,1.92.3.38,1,.52,1.41.81-.29.07-.46-.05-.74,0l-.67-.83c-15.65,6.05-15.65,6.05-8.34,8.64l-4.71,2.88h0c-5.4,1.49-11.22-3.37-16.41,1.08a14.07,14.07,0,0,0-3,.17c-15-3.89-30.61.68-45.9.64-2.93,0-5.42,1.4-3.66,3.53,1,1.27,1.36,4.38,5,2.67,10.29-4.9,24,1.57,33.32-5.48,4.52,1.77,7.73,6.41,15.09,2,16.1,6.24,31.83,6.42,46.93-3,.26,1.87,1.16,3.4,4.78,3.52l7.49.84c7.79,5.24,14.57-2.74,22.06-1.52l4.91,1.94a58.58,58.58,0,0,0,34.49-1.56c4.53-.84,10.41.21,12.69-3.81,8.09,3.41,17.77-2.8,25.88.57l8.66-1v0h0l16.93-3.32c4.47,5.6,14.91,6.7,21.5,4.72,21.39-6.45,43.38-1.75,64.59-5.46,17.75,1.16,34.27-4.22,51.52-5.69l4.48-.41a111.76,111.76,0,0,0,38.09-5.12c.17,0,.34,0,.51,0l4.55,1,29.17-1.22c7.19,1.91,15.19-1.16,22.41.48l4.58-.13c32.55.56,65.32-.44,97.59-4.1,20.53-2.31,42.13-1.82,61.65-8.4,7.32-3.78,8.06-8.61,7.09-13.7,7.09-8.18,8.84-16.74,7.49-25.52,3.62-12.63,4.79-25.1-2.51-37l-.06-5.57c10.76-3.81,22.67,1.79,33.32-2.86h0c22.44-1.85,45.4-2.92,59.82-16.88l4.32-3.14c3.25-2.36,3.09-5,2.68-7.64,5.63-2.4,11.48-4.72,8.22-10.09-3-2.38-.32-6.52-6-8h0c.09-2.53.17-5.06.27-7.59,6.53-8.62.07-8.92-6.9-8.9-.46-1-.29-2-.86-2.91.06-1.64.1-3.27.15-4.91h0c3.14-1.43,3.07-3.26,2.27-5.2-.17-2-.34-4-.52-6.06,0-1.06-.46-2.19.27-3.15l16.5-4.1h0l16.92-3.73,17.4-3.59c-.07-.89-.13-1.78-.2-2.67C1871.58,1542,1863.25,1540.46,1857.4,1544.91Zm-1662.68-33.3c.41,0,.73,0,1.1-.07-.44.35-.47.77-1.11,1.08C194.66,1512.28,194.76,1512,194.72,1511.61ZM1307.59,1735.7a.82.82,0,0,1,0-.11h.33c0,.05-.07.09-.06.14.27.2.64-.12.91,0h0ZM298,1780.15l.91-.07c-.1.23.05.33,0,.53Zm1326-384.87-.9.07c.09-.22-.06-.32,0-.53C1623.4,1395,1623.7,1395.13,1624,1395.28ZM414.15,1772.69l.62-.07c.18,0,.28.15.46.19a4.9,4.9,0,0,0-.88.19A2.36,2.36,0,0,1,414.15,1772.69ZM166.22,1743c.08,1,.17,2.11.26,3.17l.53.31-.52,0v-.36c-.11,0-.21,0-.31,0,.93-1.11.41-2.17-.06-3.22l.09,0ZM1755.8,1432.45h0c-.09-1-.18-2.11-.26-3.17l-.54-.31.52,0,0,.35c.1,0,.21,0,.31,0-.93,1.12-.42,2.16.06,3.21Zm36-50.22-.16-.27h0a11,11,0,0,0,2.47-.84C1794.12,1381.51,1793,1381.87,1791.82,1382.23Zm58.32,43.25h0v0h0ZM339.28,1753.6h0l.87-.13a2.3,2.3,0,0,0-.26.44C339.68,1753.8,339.48,1753.69,339.28,1753.6Zm1409.16-342.42c-.26.18-.61.21-.86.41-.58-.25-1.45.15-2-.25C1746.52,1411.17,1747.51,1411.28,1748.44,1411.18Zm-165.73,10.65-.86.13a4.46,4.46,0,0,0,.27-.45Zm-662.26,41.4,0,0h.06ZM260.39,1527c-.13,0-.27,0-.41,0,.1,0,0-.12.13-.17h0C260.18,1526.93,260.32,1526.92,260.39,1527Zm-84,237.06c-.91.18-1.9.08-2.83.18.26-.18.61-.22.86-.42C175,1764.09,175.87,1763.69,176.39,1764.08ZM1661.6,1648.41l.42,0c-.1,0,0,.11-.13.17h0v0h0C1661.82,1648.51,1661.68,1648.51,1661.6,1648.41Zm9.28-241.2a5.8,5.8,0,0,0-2.68,3.88s-.1,0-.15,0c2.34-1,2.36-2.46,2.79-3.87Zm-776.4,52a1.77,1.77,0,0,1,.12-.17c0,.06,0,.11.06.18Zm107.06,253,0,0-.1,0S1001.53,1712.21,1001.54,1712.2ZM1738,1422.41l-.18-.06-.24-.13h.15c0,.06.12,0,.12,0l0,.11h.05Zm112.21,3.65c.06.33.12.66.17,1h0c0-.33.19-.7-.18-1Zm-981.68,27.16-.42-.1-8,.61h0c2.7.15,5.48,1.07,8-.62.09-.06.22,0,.31-.09S868.52,1453.16,868.56,1453.22ZM184,1753l.16.06.24.13h-.14c0-.06-.11,0-.11,0v-.12h0S184,1753.06,184,1753ZM71.88,1750h0Zm181.91,14.39c.06,0,.11,0,.16,0-2.34.95-2.36,2.45-2.78,3.85l0,0A5.79,5.79,0,0,0,253.79,1764.35Zm773.73-48.14-.12.16c0-.06,0-.11-.06-.17A.56.56,0,0,1,1027.52,1716.21Zm25.93,6,.41.1,8-.61h0c-2.7-.14-5.47-1.08-8,.61-.09.06-.22,0-.31.09S1053.49,1722.27,1053.45,1722.21Zm549.47-316.86c-.3-.15-.66-.15-1-.29a13.75,13.75,0,0,0,1.39-.21C1603.23,1405.12,1603,1405.1,1602.92,1405.35Zm-1475.07,389c0-.39,1.12-.75,2.33-1.11l.15.26A12.59,12.59,0,0,0,127.85,1794.31Zm191.23-24.22c.29.14.67.15,1,.28a13.94,13.94,0,0,0-1.4.21C318.76,1770.31,319,1770.33,319.08,1770.09Zm1383.77-300.44c-.23-.12-.57-.06-.79-.18l-.2-.13h.28l-.07.14c.25,0,.51-.07.76,0C1702.8,1469.52,1702.88,1469.56,1702.85,1469.65Zm58.43-1.46-1.82.1h0a4.14,4.14,0,0,0,1.82-.11ZM1792,1376.7h-.9c-.06-.54-.11-1.09-.15-1.64.12,0,.25,0,.37,0A1.74,1.74,0,0,0,1792,1376.7Zm-10.58-1.67a6.84,6.84,0,0,0-.82-.38l1.49.13C1781.92,1375,1781.53,1374.88,1781.38,1375Zm-123.69,7.66a1.08,1.08,0,0,1,0,.18l-.17-.17Zm-25,14.65v.14h-.22A1.59,1.59,0,0,0,1632.73,1397.34Zm-124.89,5.39h0l-.6.08c-.19,0-.29-.15-.47-.19a3.73,3.73,0,0,0,.88-.19C1507.71,1402.53,1507.77,1402.63,1507.84,1402.73Zm-84.77,20.8h0c0-.06,0-.13,0-.2h0ZM219.14,1705.79c.23.1.57,0,.8.17l.19.13h-.27l.07-.13c-.25,0-.51.07-.77,0C219.19,1705.91,219.12,1705.87,219.14,1705.79Zm-89.09,92.94h.89l.15,1.64a2.2,2.2,0,0,1-.37-.06A1.76,1.76,0,0,0,130.05,1798.73Zm134.26-6v-.18l.17.17Zm24.95-14.64V1778l.23,0C289.43,1778,289.32,1778,289.26,1778.1Zm1601.2-328.89c.06,0,.19,0,.24,0l-.52,0A.86.86,0,0,0,1890.46,1449.21Zm-686.9-9.62-.18,0c0-.09-.11-.09-.1-.18Zm-589.15.13,0,.12H614s.08-.09.06-.14c-.26-.2-.63.11-.91,0h0ZM31.54,1726.22c-.06,0-.19,0-.25,0l.53-.05A1.2,1.2,0,0,0,31.54,1726.22Zm109.07,74.17a6.68,6.68,0,0,0,.81.39l-1.46-.13C140.08,1800.48,140.47,1800.54,140.61,1800.39Zm577.82-64.55.18,0c0,.09.11.09.11.17Zm1079.33-368.2,1.45.46-1.26.1C1798,1368,1797.76,1367.86,1797.76,1367.64Zm-332.76,38,0,0a.28.28,0,0,1,.11,0Zm-804.62,32.08h0l0-.09v-.17h0A.62.62,0,0,0,660.38,1437.69Zm-8.85-.53h0c0-.36.17-.73,0-1.08h0C651.5,1436.44,651.51,1436.8,651.53,1437.16Zm-527.3,370.63-1.44-.46,1.26-.11C124,1807.48,124.24,1807.57,124.23,1807.79Zm332.76-38a0,0,0,0,0,0,0s-.06,0-.1,0A.25.25,0,0,1,457,1769.82ZM812.85,1737c.08.23.64.08.69.33a7.14,7.14,0,0,1-1-.14C812.64,1737.12,812.73,1737,812.85,1737Zm448.77.77h0v.26h0A.76.76,0,0,0,1261.62,1737.75Zm464.57-73.86c.43-.35.45-.75,1.09-1.07,0,.33,0,.66,0,1C1726.86,1663.82,1726.55,1663.87,1726.19,1663.89Zm151.06-144c.08-.1.3-.11.39-.2a4.22,4.22,0,0,0,1.4.61C1878.36,1520.24,1877.94,1519.86,1877.25,1519.85ZM1866.59,1356h0l-8.13.62c-.12.11-.32,0-.44.15a4.32,4.32,0,0,0-.39-.34l.82.19C1861.31,1357.88,1864,1357.3,1866.59,1356Zm-757.1,82.25a1.86,1.86,0,0,0-.34.19c-.08-.23-.66-.08-.7-.34A6.36,6.36,0,0,1,1109.49,1438.26Zm-39.64,2-.17,0c0-.09-.18,0-.22-.11C1069.56,1440.24,1069.76,1440.16,1069.85,1440.25Zm-68.78-2.09h0Zm-35.39-2.67c1,2,2.37,2.49,3.58,3.66-6.12.33-12.21.25-18.33.57h0c-.77-.09-1.55,0-2.34,0C953.67,1437.3,958.22,1434,965.68,1435.49ZM758.19,1435c.28-.06.45,0,.74,0l.66.82C759.29,1435.45,758.61,1435.32,758.19,1435Zm-136.92-3.91h0c0,.07-.15.09-.15.09-.25-.17-.71-.1-1-.3C620.48,1431,621,1430.91,621.27,1431.11Zm-411.94,21.51c-.15,0-.15.09-.29.11l.11-.1A.29.29,0,0,1,209.33,1452.62Zm-164.59,203c-.07.1-.29.11-.38.2a4.05,4.05,0,0,0-1.37-.6C43.66,1655.2,44.07,1655.58,44.74,1655.58ZM55.4,1819.42h0l8.14-.62c.12-.11.32,0,.45-.15a3.25,3.25,0,0,0,.39.35l-.84-.2C60.69,1817.56,58,1818.13,55.4,1819.42Zm796.74-84.25a.5.5,0,0,0,.17,0c0,.1.2,0,.24.13C852.45,1735.19,852.24,1735.27,852.14,1735.17Zm68.8,2.1h0s-.08,0-.13,0Zm35.39,2.68c-1-2-2.38-2.5-3.59-3.67,6.11-.33,12.22-.25,18.33-.58h0c.79.09,1.57,0,2.34,0C968.33,1738.13,963.77,1741.41,956.33,1740Zm344.41,4.37c0-.07.16-.09.16-.09.24.17.68.1.93.29C1301.51,1744.4,1301,1744.51,1300.74,1744.32Zm411.93-21.51c.15,0,.15-.08.28-.1l-.11.08C1712.76,1722.82,1712.71,1722.83,1712.67,1722.81Z" style="fill:#ff931e"/><path d="M1627.86,1365.85c2.26-.56,4.07-1.3,3.09-2.52-1.81-2.24-5.66-2-9.25-1.74-10,.38-20.21-3-30.13,1.55-16.35,1.4-33,1.12-51.91,5.38C1551.74,1370.06,1621.84,1367.34,1627.86,1365.85Z" style="fill:#ff931e"/><path d="M1147.56,1419.86c-7.19-1-12-.36-12.65,3.63-.92,5.33,6.7,4.76,13.09,5.14,13.11.78,20.73-7.9,33.14-7.84,16.45-3,32.33.26,48.56-.38a7.86,7.86,0,0,0,2.11-.28c4.59-1.49,12.26-1.47,10.87-6.3-1.08-3.68-6.72-3.85-12-3.28-18.06,2-36.11,4-54.17,6C1165.93,1413.64,1157,1421.23,1147.56,1419.86Z" style="fill:#ff931e"/><path d="M1057.06,1409.14c1-.37,1.42-2.84.53-3.47-6.14-4.29-14.56-1-22-1.24-3.43-.13-7,.39-11.41.68.09,4.23,3.29,5.5,6.35,6.19A45.78,45.78,0,0,0,1057.06,1409.14Z" style="fill:#ff931e"/><path d="M1180.34,1408.09c7.13-1,14.77.4,22.81-2.72-8-3.15-14.93-4.79-22.82-.16-16.46.44-32.94.75-54.22,5.8C1148,1414.77,1164.18,1412,1180.34,1408.09Z" style="fill:#ff931e"/><path d="M1124.32,1403.32c8.67-.29,17.59.51,29.13-3.22l-13.07-1.92h0c-17.72,0-35.27,1-52.39,5.48C1100,1405.88,1112.11,1405.21,1124.32,1403.32Z" style="fill:#ff931e"/><path d="M838,1422.42c2.93,0,5.42-1.39,3.66-3.53-1-1.28-1.36-4.38-4.94-2.68-10.3,4.9-24.07-1.56-33.32,5.49-4.07-.93-8-1.08-11.31,1.35C807.12,1427,822.74,1422.38,838,1422.42Z" style="fill:#ff931e"/><path d="M1031.45,1422.82a118,118,0,0,0,11.63-3c12.34,3,22.7-2.94,36.66-3.15-10.72-4.82-19.07-3.63-27.51-.41-7.68-3.29-15.57-2-23.29.75-2.13.77-5.08,2.35-5.09,3.46C1023.84,1423.35,1028.18,1423.35,1031.45,1422.82Z" style="fill:#ff931e"/><path d="M1441.25,1379c-6.84-6.43-16.16-2.34-23.93-2.16C1422.82,1382.33,1430.5,1382.37,1441.25,1379Z" style="fill:#ff931e"/><path d="M93.61,1673.1l-.24-1.06.1-1.09-41.8,5.91C68.22,1680.14,80.52,1674.34,93.61,1673.1Z" style="fill:#ff931e"/><path d="M866.3,1420.79c2.78-.16,6.14.25,8.23-.59,4.73-1.9,16,1.63,14.2-4-2.39-7.67-8.22,3.34-13.37.84-2.55-1.24-6.09-1.74-9.18-2.57-4.27-1.93-10.37-2.31-11.6,1C852.77,1420.36,859.46,1421.25,866.3,1420.79Z" style="fill:#ff931e"/><path d="M1484.47,1375.13c6-.44,12.22.43,21-3.7l-21,1.36c-10.33.65-20.87.16-32.22,3.39C1463.88,1378.45,1474.2,1375.61,1484.47,1375.13Z" style="fill:#ff931e"/><path d="M66.31,1610.25c7.22,0,14.36,0,18-9Z" style="fill:#ff931e"/><path d="M922.1,1416.89c5.69-.54,15.45,1.51,14.61-4.28-.81-5.56-9.72-2.41-15.55-1.51a19.33,19.33,0,0,0-3.77,1.36c-5.11-.35-10.54-1.54-14.46,2.52C908.39,1418.79,915.32,1417.62,922.1,1416.89Z" style="fill:#ff931e"/><path d="M844.09,1428.59c-6.88-1.11-12.27-1.23-18.6.87C831.7,1432.32,836.75,1434.1,844.09,1428.59Z" style="fill:#ff931e"/><path d="M1210.15,1395.56h0c7.29,2.57,13.71,3.38,16.38-3.58-5.83-3.79-12.82-1.92-18.9,0-2.45.77-.58,3,2.52,3.58Z" style="fill:#ff931e"/><path d="M956.69,1414.57l-.33.27c.15,1.7.3,3.39.46,5.09-1.74,1.71-8.92-1.7-7.32,3.11,7.19,4.91,16.45.94,24.73,1.21,11.15,2.59,14.23,1.65,13.29-4h0l-9.6-4.43h0c3.78-1.89,6.2-4.59,2.32-6.45-6.82-3.27-12.65,2.71-19.49,2.43-4.23-2.82-11.68-3.49-13.68-.43C944.58,1415.07,952.15,1414.6,956.69,1414.57Z" style="fill:#ff931e"/><path d="M812.67,1430.23c-4.63-3-9-1.68-16.34,0C803.62,1433.13,807.92,1433,812.67,1430.23Z" style="fill:#ff931e"/><path d="M60.42,1628.35,43,1631.94,13.34,1639c-5.35.75-10.87,1.33-13.34,5.41,6.66.52,12.81.79,17.69-2.91,9.27-1.09,18.09-2.9,25.54-6.91,7.19-1.19,15.48.35,21.34-4.09h0c6-.62,12.61,0,17.18-3.69a8.27,8.27,0,0,0-4.42-2.21Z" style="fill:#ff931e"/><path d="M417.5,1559.69a30.67,30.67,0,0,0-7.72,1.31c-2.92.83-6,1.77-9.1,2.84s-6.28,2-9.37,2.85A35.27,35.27,0,0,1,383,1568a11.74,11.74,0,0,1-6.1-1.19,8.32,8.32,0,0,1-3.33-3.38,11.88,11.88,0,0,1-1.33-4.56c-.15-1.64-.25-3.23-.28-4.76a15.35,15.35,0,0,1,3.73-11,30.63,30.63,0,0,1,11.21-7.39,102.14,102.14,0,0,1,17.76-5.32q10.44-2.25,23.59-5,20.7-4.32,37.82-6.81t32.69-3.78q15.57-1.3,30.53-1.8t31.51-.85a19.84,19.84,0,0,1,7.78,1.07,8.81,8.81,0,0,1,5.88,7.47,45.42,45.42,0,0,1,.37,4.94,26,26,0,0,1-.66,6.1,18.25,18.25,0,0,1-2.51,6,14.57,14.57,0,0,1-4.84,4.61,14.82,14.82,0,0,1-7.45,1.92l-14.08.3q-8.46.18-18,.47t-18.84.76q-9.33.47-17.85,1.17t-15.12,1.82a54.74,54.74,0,0,0-10.42,2.61c-2.57,1-3.83,2.2-3.8,3.61a27.23,27.23,0,0,0,1.73,7q1.69,4.9,4.1,10.6t4.91,11.19l4.16,9.18a9,9,0,0,0,3.26,4,9.17,9.17,0,0,0,4.77,1,126.58,126.58,0,0,0,14.78-1.2q7.54-1,15.18-2.35t15.28-2.35a133.13,133.13,0,0,1,15.21-1.21,14.36,14.36,0,0,1,7,1.35,12.8,12.8,0,0,1,4.4,3.62,13.76,13.76,0,0,1,2.3,4.63,17.82,17.82,0,0,1,.7,4.22q.16,7.93-4.68,12t-13.25,6.2a124,124,0,0,1-19.58,3.06q-11.17.94-23.64,2.45l-4.22.44a6.13,6.13,0,0,0-3.49,1.66,4.31,4.31,0,0,0-1.17,3.2,1.88,1.88,0,0,0,.2.88,1.94,1.94,0,0,1,.19.88q1.71,5.79,4,12.89t4.26,14.12q2,7,3.37,13.35a57.32,57.32,0,0,1,1.45,10.38q.18,8.12-5.81,12.49t-17.08,4.59a17.63,17.63,0,0,1-7.88-1.68c-2.55-1.18-4.15-3.42-4.81-6.7q-3.12-14.4-6.94-28.18t-8-27.46c-1.13-3.16-3.21-4.7-6.27-4.64q-5.28.12-11.89-.1A137.4,137.4,0,0,1,407,1631a48,48,0,0,1-11.54-4.26,27.21,27.21,0,0,1-8.25-6.53,14.29,14.29,0,0,1-3.27-9.11,15,15,0,0,1,1.44-6.65,22.4,22.4,0,0,1,3.93-5.91,22.12,22.12,0,0,1,5.28-4.27,11.7,11.7,0,0,1,5.51-1.7A17.47,17.47,0,0,1,407,1594q3.74,1.51,8,3.36a84.26,84.26,0,0,0,9.15,3.34,33.42,33.42,0,0,0,10.51,1.36c1.87,0,2.79-1,2.75-3.06a38.49,38.49,0,0,0-1.12-7.39c-.72-3-1.63-6.23-2.76-9.56s-2.4-6.6-3.82-9.8a46.57,46.57,0,0,0-4.49-8.12,15.41,15.41,0,0,0-3-3.29A7.24,7.24,0,0,0,417.5,1559.69Z" style="fill:#fff"/><path d="M726.35,1643.51q5-4.52,9.94-4.62a9.54,9.54,0,0,1,5.14,1.3,26.57,26.57,0,0,1,5.2,4.3,52.87,52.87,0,0,1,3.93,6.54,12.5,12.5,0,0,1,1.25,5q.11,5.29-5.07,10.17a121.91,121.91,0,0,1-18,13,136.1,136.1,0,0,1-20.4,9.88,133.64,133.64,0,0,1-22.06,6.38,130.55,130.55,0,0,1-22.67,2.51,95.85,95.85,0,0,1-26.85-3,76.89,76.89,0,0,1-22.49-9.85,65.12,65.12,0,0,1-16.81-15.8,60.55,60.55,0,0,1-10-21.06q-1.69-4.9-3-6.38a5.51,5.51,0,0,0-4.35-1.41q-6.51.13-10.1-3t-3.72-9.1a8.86,8.86,0,0,1,.28-3.19l.28-3.53q.75-6.37,3.24-9.25t8-3l2.64-.05c4.93-.11,8.35-2.47,10.25-7.11a93.89,93.89,0,0,1,13.44-22.52A92.15,92.15,0,0,1,623,1562.12a90.73,90.73,0,0,1,22.39-11.6,77.79,77.79,0,0,1,24.48-4.49,76.61,76.61,0,0,1,24.47,3.27,64.35,64.35,0,0,1,20,10.08A50.55,50.55,0,0,1,728,1574.8a40.34,40.34,0,0,1,5.26,19.31,30.21,30.21,0,0,1-10.42,24,42.89,42.89,0,0,1-12.61,7.59,65,65,0,0,1-16.91,4.07l-61,7.47a8.83,8.83,0,0,0-5.68,1.89,5.8,5.8,0,0,0-2.1,4.81,13.83,13.83,0,0,0,3.62,8.75,31.92,31.92,0,0,0,9.32,7.3,53.75,53.75,0,0,0,13.31,4.93,61.18,61.18,0,0,0,15.45,1.61,83.62,83.62,0,0,0,15.56-1.83,100.85,100.85,0,0,0,15.75-4.66,113.32,113.32,0,0,0,15.09-7.11A96.37,96.37,0,0,0,726.35,1643.51Zm-40.24-44.69a8.55,8.55,0,0,0,4.53-2.66,7,7,0,0,0,1.83-5.07,7.54,7.54,0,0,0-2.05-4.9,18.58,18.58,0,0,0-5.37-4,30.89,30.89,0,0,0-7.81-2.75,40,40,0,0,0-9.35-.86,54.66,54.66,0,0,0-14.75,2.43,62.82,62.82,0,0,0-13.62,5.85,40.72,40.72,0,0,0-9.87,7.81c-2.53,2.81-3.76,5.58-3.7,8.28s1.73,4,5,4c2-.05,5.21-.35,9.67-.92s9.36-1.22,14.75-2,10.83-1.61,16.33-2.55S682,1599.61,686.11,1598.82Z" style="fill:#fff"/><path d="M804,1527.29a101.12,101.12,0,0,1,24.36,2.57,124.93,124.93,0,0,1,23.06,7.45,69.76,69.76,0,0,1,17.32,10.49q6.81,5.87,6.93,11.51a11,11,0,0,1-2.33,6.31,38.28,38.28,0,0,1-5.85,6.66,34.65,34.65,0,0,1-7.55,5.28,17,17,0,0,1-7.26,2.18c-2.82.06-6-1-9.5-3.33s-7.38-4.81-11.61-7.6a98.22,98.22,0,0,0-13.81-7.57,36.92,36.92,0,0,0-16.1-3.19,14.87,14.87,0,0,0-9.19,2.94,9.07,9.07,0,0,0-3.45,7.75q.09,4.41,4.42,8.82a68.22,68.22,0,0,0,11.38,9q7,4.61,16,9.72t18.29,10.91q9.38,5.8,18.33,12.68a111.2,111.2,0,0,1,16.08,15,73,73,0,0,1,11.57,17.85,53,53,0,0,1,4.68,21.18,44.81,44.81,0,0,1-3.14,18.07,39.68,39.68,0,0,1-9.74,14.15,45.82,45.82,0,0,1-15.31,9.33,58.83,58.83,0,0,1-19.65,3.6,73.07,73.07,0,0,1-25.1-3.62,61.41,61.41,0,0,1-20-11,51.31,51.31,0,0,1-18.45-39q-.33-15.52,5.07-22.7t17.37-7.43q7.39-.17,11.86,2.57t4.55,6.79a14.44,14.44,0,0,1-.61,4.34q-.66,2.22-1.4,4.62t-1.3,5a22.87,22.87,0,0,0-.51,5.31,19.57,19.57,0,0,0,2.3,8.78,25.42,25.42,0,0,0,5.88,7.38,28.32,28.32,0,0,0,8.48,5A26.17,26.17,0,0,0,840.2,1687q14.09-.3,13.84-11.94-.19-9.18-7.59-17.23A108,108,0,0,0,828,1642.15q-11.09-7.62-23.84-15.3a266.75,266.75,0,0,1-23.86-16.08,97.17,97.17,0,0,1-18.53-18.06,35.11,35.11,0,0,1-7.68-21.11,38.63,38.63,0,0,1,3.6-17.55,42.14,42.14,0,0,1,10.53-13.91,50.5,50.5,0,0,1,15.93-9.25A61.05,61.05,0,0,1,804,1527.29Z" style="fill:#fff"/><path d="M908.27,1474.41q-.21-9.36,5-13.26t17.35-4.17a30.33,30.33,0,0,1,7.5.64,11.65,11.65,0,0,1,5.35,2.8,15.19,15.19,0,0,1,3.64,5.48,45.73,45.73,0,0,1,2.38,8.69q2.46,16.37,5.39,33.78t6.12,35q1.21,7.92,8.44,7.77,1.93,0,6.42-.58c3-.36,6.53-.78,10.63-1.29l13.27-1.6q7.11-.86,14.23-1.63t13.54-1.34q6.42-.59,11.35-.69a11.22,11.22,0,0,1,6.19,1.37,10.86,10.86,0,0,1,3.69,3.81,15.65,15.65,0,0,1,1.88,5.25,40,40,0,0,1,.56,5.91,16.93,16.93,0,0,1-.85,5.49,17.77,17.77,0,0,1-2.53,5.08,13.74,13.74,0,0,1-4.06,3.71,11.2,11.2,0,0,1-5.61,1.53q-15.32.33-30.88,1.63t-31,3.21q-7.9,1.23-7.75,8.11a5.65,5.65,0,0,0,.2,1.32,5.8,5.8,0,0,1,.2,1.32q2.45,15.32,4.58,28.68t3.67,23.84q1.54,10.49,2.49,17.43t1,9.25a39.53,39.53,0,0,1-1,10.7,15.51,15.51,0,0,1-3.9,7.14,16,16,0,0,1-7.4,4,50.11,50.11,0,0,1-11.68,1.4c-4.47.09-7.77-.9-9.93-3s-3.41-5.28-3.73-9.63q-1.5-20.79-4.24-41.84t-6.17-42q-1.75-7.54-8.09-7.42a5.77,5.77,0,0,0-1.23.2,5.27,5.27,0,0,1-1.23.21q-10.86,2.7-20.49,5.38t-18,5.67a55.69,55.69,0,0,1-8.41,2.39,40,40,0,0,1-6.67.76,6.38,6.38,0,0,1-6.07-3.49,19.16,19.16,0,0,1-2.13-9,32.84,32.84,0,0,1,.26-4.5,23.58,23.58,0,0,1,1.21-5.15,16.18,16.18,0,0,1,2.72-4.82,13.69,13.69,0,0,1,4.94-3.73,171.57,171.57,0,0,1,19.59-6.68q12.26-3.52,27.69-6.68a11.71,11.71,0,0,0,5.49-3q2-2.07,1.89-6.13c0-.59,0-1.21,0-1.85a6.38,6.38,0,0,0-.39-2q-3.17-16.17-6-29.44t-4.89-22.76q-2.05-9.48-3.22-14.93A58.56,58.56,0,0,1,908.27,1474.41Z" style="fill:#fff"/><path d="M1066,1494.89a30.11,30.11,0,0,1-9.63-1.3,23.36,23.36,0,0,1-7.84-4.07,21.28,21.28,0,0,1-5.33-6.33,17.37,17.37,0,0,1-2.11-8.08,14.49,14.49,0,0,1,5.65-12.12q5.79-4.71,15.66-4.92a23.53,23.53,0,0,1,8.84,1.49,25.87,25.87,0,0,1,7.58,4.34,21.85,21.85,0,0,1,5.34,6.5,17.21,17.21,0,0,1,2.1,7.82,14.26,14.26,0,0,1-5.29,12Q1075.53,1494.7,1066,1494.89Zm-23,54.33a12.1,12.1,0,0,1,5.16-10.26q5.28-4.08,14.09-4.27,15.84-.35,17.13,10.58.87,7.57,1.86,17.08t2,20.17q1,10.67,1.88,22t1.62,22.39q.75,11,1.33,21.24t.75,18.7q.18,8.82-6,13.37t-18.13,4.8q-5.46.1-8.6-2.38t-3.24-7.43q-.51-24.36-2.11-45.6t-3.27-37.79q-1.68-16.56-3.06-27.57T1043,1549.22Z" style="fill:#fff"/><path d="M1212.93,1535.55a64.64,64.64,0,0,1,1.15-8.23,13,13,0,0,1,2.35-5.35,9.19,9.19,0,0,1,4.25-3,21.4,21.4,0,0,1,6.68-1q12.84-.27,19,3.39t6.33,12q0,1.59-.47,7t-1.39,13.27q-.88,7.88-2,17.35t-2.15,19.2q-2.68,22.65-6.14,50.79-2.11,16.65-9.27,24t-21.42,7.7a51.43,51.43,0,0,1-22.3-5,98.55,98.55,0,0,1-22.5-14.35,150.9,150.9,0,0,1-20.8-21.36,172.47,172.47,0,0,1-17.38-26.11,153.17,153.17,0,0,1-12-28.44,104.81,104.81,0,0,1-4.75-28.5q-.33-15.69,4-23.65t15.42-8.18a71.21,71.21,0,0,1,12.88.69,19.21,19.21,0,0,1,8.26,3.18,13.09,13.09,0,0,1,4.53,6.17,30.34,30.34,0,0,1,1.53,9.68q.08,3.88-.19,7.77t-.19,7.77a101.72,101.72,0,0,0,2.25,18.76,140.49,140.49,0,0,0,5.43,19,135.17,135.17,0,0,0,7.77,17.57,100,100,0,0,0,9.29,14.55,50.76,50.76,0,0,0,9.82,9.85c3.27,2.41,6.44,3.57,9.49,3.51a5.84,5.84,0,0,0,4.8-2.22c1.09-1.44,1.77-3.86,2-7.28Z" style="fill:#fff"/><path d="M1387.94,1513.82a58.85,58.85,0,0,1,18.73,2.61,53.37,53.37,0,0,1,16,8,41.65,41.65,0,0,1,11.28,12.47,33.1,33.1,0,0,1,4.48,16.33,16.14,16.14,0,0,1-1.52,7.18,19.58,19.58,0,0,1-4.36,6.09,22,22,0,0,1-6.34,4.2,19.46,19.46,0,0,1-7.45,1.66,1.92,1.92,0,0,0-.62.1,1.85,1.85,0,0,1-.61.1,1.45,1.45,0,0,1-.7.19l1,14.11q1.25,25.21,7.92,36.72t17.06,11.29a28.06,28.06,0,0,0,6.59-.84,44.14,44.14,0,0,0,5.42-1.8q2.54-1,4.81-1.78a15.46,15.46,0,0,1,4.56-.8,9.25,9.25,0,0,1,7.21,3.38,12.46,12.46,0,0,1,3.26,8.4,16.2,16.2,0,0,1-3.58,10,38.9,38.9,0,0,1-9.76,9.12,58,58,0,0,1-13.77,6.73A51.18,51.18,0,0,1,1432,1670q-13.74.29-24.37-10.87t-15.5-33.13c-.75-2.33-1.72-3.49-2.89-3.47a4.57,4.57,0,0,0-3.65,2.2q-17,22.42-36.46,33.88t-38.68,11.85a46.72,46.72,0,0,1-16.25-2.3,34.13,34.13,0,0,1-12.4-7.24,32.77,32.77,0,0,1-8-11.66,42.44,42.44,0,0,1-3.06-15.56,68.71,68.71,0,0,1,4.82-25.7,131.33,131.33,0,0,1,14-26.78,178.17,178.17,0,0,1,20.69-25.33,182.37,182.37,0,0,1,24.91-21.36,135.08,135.08,0,0,1,26.73-14.87A73.07,73.07,0,0,1,1387.94,1513.82Zm-4.52,61.18a40.06,40.06,0,0,1,5.63-8.86,13.45,13.45,0,0,1,7.49-3.77q3.87-.61,3.82-2.56a5.42,5.42,0,0,0-1.12-3A55.28,55.28,0,0,0,1392,1549c-2.51-2.25-5.83-3.32-9.93-3.24q-6.7.15-14.89,4.2a95.52,95.52,0,0,0-16.6,10.69,157.59,157.59,0,0,0-16.41,15,144.7,144.7,0,0,0-14.17,17.16,97.5,97.5,0,0,0-9.85,17.33q-3.71,8.55-3.56,15.26.14,6,3.46,9.28a11.83,11.83,0,0,0,9,3.17q14.45-.32,31.2-16T1383.42,1575Z" style="fill:#fff"/><path d="M1467.07,1465.36q-.19-9.18,5-13.17t17.35-4.25a27.92,27.92,0,0,1,7.42.72,12.32,12.32,0,0,1,5.34,2.8,14.81,14.81,0,0,1,3.55,5.4,46.2,46.2,0,0,1,2.39,8.69q2.63,15.66,5.36,32.81t5.31,34.13q2.57,17,4.84,33.09t4.07,29.92q1.8,13.83,2.81,24.48t1.15,16.84a43.59,43.59,0,0,1-.91,10.79,14.68,14.68,0,0,1-3.73,7.14,15.63,15.63,0,0,1-7,3.94,42,42,0,0,1-10.63,1.37q-6.17.14-9.84-3t-3.81-9.63q-.15-6.71-1.44-17.89t-3.35-24.91q-2.06-13.73-4.58-29.21t-5.24-30.61q-2.7-15.12-5.19-29.1t-4.49-24.8q-2-10.82-3.2-17.76T1467.07,1465.36Z" style="fill:#fff"/><path d="M995.12,68.8c-7.67,9.32-11.51,18.33-15.69,29.56,9.92,0,20.13-4.06,31-9.74-5.87,11.4-10.33,26.55-9.13,35.7-8.17-4.15-14.1-7.65-23.74-8.67.34,10.31,2.32,18.8,5.2,28.67-14.95-3.6-29.18-3.5-44-1.1,8.47-9.06,15.54-17.55,21-27.8-10.21-1.54-19.79-.52-31,5a130.06,130.06,0,0,0,10.46-34.81,51.8,51.8,0,0,0,23.85,13.73c.46-8.25-1-18.79-4.51-29.53a170.6,170.6,0,0,0,36.54-1Z"/><path d="M1332.53,574.76c-10,9.94-14.81,20.55-14.81,31.75,0,21.8,9.69,36.29,9.69,64.18,0,29.84-18.27,60-48.21,89.95-80.12,80.15-208.32,118.27-376.73,118.27-116.21,0-281.18-32.75-345.64-98.06-18-18.21-27.23-42.91-27.23-65.36,0-44.8,35.13-61.74,35.13-96.85,0-20.63-26.62-37.58-100.52-37.58-104.06,0-285.64,70.26-377.67,70.26-30.28,0-63-9.7-83.55-28.45L47.76,571.4c27.88,32.68,57,42.39,100.5,42.39,139.25,0,261.51-82.32,377.71-82.32,42.95,0,69,21.14,69,54.45,0,49.63-35,49.63-35,92,0,76.33,228.74,151.34,434.54,151.34,179.46,0,297.76-65.33,297.76-107.73,0-24.85-8.44-28.45-8.44-56.83,0-44.82,35.14-95.71,74.44-135.05,39.92-39.93,110.76-47.79,174.9-47.79,100.5,0,230.07,21.76,309.92,21.76,24.24,0,64.18-6,79.93-30.23-15.75,30.23-55.69,69-147.74,69-217.22,0-387.92-22.39-442.73,32.4Z" style="fill:#c31f39"/><path d="M852.54,111.4c-3.36,23.56,7,29.66,7.81,52.27,13-4.47,47-6.9,57.52-7.87-13.55,5.83-31.76,25.79-45.32,33.14,22.1,13.23,24.46,31.4,35.75,41-12.65-5.07-34.28,2.53-51.41-11.38-1.66,12.65-17.36,42.32-20.92,64.51-8.54-42.18-14.63-52.45-15.7-69.74-23.12,8.8-43.67,2.16-59.42,1.53,19.34-9.68,33.88-14.53,48.14-28.53-13-18.68-16.63-32-25.3-39.24,12.86,4.2,39.7,13.69,47.87,14.8,1.13-23.67,14.05-42.08,21-50.5ZM1114,141.9c-7.46,10-17.17,23.33-20.87,44.44,17.6-1.7,40.4,2.18,45.29,6.09-15.59,3.68-35,20-43.54,28.78,6.21,16,10.43,31.81,17.43,57.53-12.42-15.49-25.19-27-40.07-41.87-11.15,16.15-22,34.31-32.23,50.54,2.35-22.29-7.32-41,5.2-59.24-18.56-6.66-38.55-6.66-48-14,22.12-4.16,34-18.27,50.53-19.17,0,0-15.09-37.05-29.29-48.24,19.63,3.91,39,13,49.39,24.74,9-7.51,22.79-26.65,46.12-29.63Z"/><path d="M762.05,104.08S773,71.43,803.16,41.13,866.16,0,905,0c38.64,0,140.42,13.35,188.8,13.35s60.56-4.86,75-13.35c-3.63,9.7-3.63,13.35-15.71,25.41-19.41,19.41-42.4,25.41-92,25.41-76.24,0-115-3.61-162.18-3.61s-72.7,3.26-94.44,16.95C781.41,78.68,762.05,104.08,762.05,104.08Z" style="fill:#c31f39"/><path d="M801.05,295.31c-.27,12.16,1.15,34,20.3,58.79,2.43-10.89,21.21-6.66,54.67-29.19-8.85,10.29-22,34.52-31.38,46.21,19.75,6,22.15,30.81,39.24,44.43-16.52-9.39-41.09-10.74-51-17.26,5.63,22.26-7.24,46.59-3,67.84C823.32,457,808,414.44,805.44,413c-19.17,6.51-42.16,29.46-47.93,27,19.66-21.14,17.86-43.54,28.76-53.2-15.59-.7-42-20.91-49.72-32.2,23.07,6.76,38.2,8.59,55,3.47,0-10.86,1.41-54.81,9.54-62.75Zm280.69,0c-4.92,25.47,1.74,40,0,63.6,8.38-4.23,25.91.63,51.43-5.2-18.24,11.9-32.14,22.78-42.69,35.71,11.68,16.12,12.35,33.06,27,52.3-14.63-7.7-35.82-20.45-47-25.3-6.93,9.11-14.85,26-17.45,54.94-4.66-22.85-12.51-45.24-11.35-68.88-23,6.07-33.24-.55-55.82,3.5q22.7-13.46,45.32-27c-2.79-3.09-13.67-9.79-30.45-59.32,21.34,19,29.49,17.48,53.13,35.74C1054.43,335.93,1069,330.5,1081.74,295.31Z"/><path d="M908.55,328.07c18.12-89.6,50.79-162.22,50.79-162.22,6.06,93.17-14.47,168.28,2.12,332.54h18.31c7.85,0,8.14-8.73,14.82-8.73,5.9,0,13.2,13.34,29.61,13-15.22,11.75-21.84,20.07-27.89,20.07s-8.54-6.07-14.81-6.07c-13.69,0-21.53,2-33.66,2,0,12.06-.58,29-.58,43.57,0,8.63,11.58,5.48,11.58,14.49,0,6.51-14.94,22.7-17.44,41-8.78-17-23.54-27-23.54-37.44,0-8.93,8.71-7.12,8.71-15.7,0-17.43-3.5-31.92-3.5-44.43,0,0-17.55.38-31.49.38-8.78,0-5.51,13.07-16.41,15.29-7.82-.14-31.39-10.47-31.39-10.47,7.81-4.82,17.53-24.19,25.37-24.19,6.59,0,7.68,6.65,12.72,6.65,0,0,26.92-3.11,32.73-5.51-1.26-3.81-7.28-142.81-6.05-174.28Z"/><path d="M719.68,347.44s-23,43.61-23,87.28c0,60.52,27.88,96.75,72.63,141.52,29.91,29.92,97.1,71.71,136.81,115,24.65,26.93,43.55,44.84,38.78,74.54,6.63-11.51,9.65-29.7,9.65-47.83,0-40.61-23.94-64.47-56.62-95.89-34.63-33.44-79.22-67-115.26-102.65-39.2-38.82-65.39-83.37-65.39-125.9,0-19.37,2.42-46,2.42-46Z" style="fill:#c31f39"/><path d="M162.34,1284.31c0,29.11,4.51,42.64,44.63,43.68v13.49H62V1328c40.62-2.56,44.63-13.55,44.63-47.18V1093.74c0-37.57-5.53-50.2-44.63-50.72v-13.49H207V1043c-37.66,1.57-44.63,9.6-44.63,53.22V1171h181.1v-75.24c0-40.69-5.05-51.16-46.15-52.73v-13.49H444.72V1043c-39.55,2-45.57,10.56-45.57,49.24v189c0,35.63,5.46,44.16,45.57,46.71v13.49H297.29V1328c39.13-1.51,46.15-12,46.15-47.64v-86.84H162.34v90.8ZM676.74,1316c-23.63,21-42.66,31.06-59.21,31.06-19.08,0-28.57-10.55-28.14-31.06-24,18.61-29.6,31.06-59.19,31.06-30.55,0-52.13-20.06-52.13-48.16,0-14,4.58-26.06,13-34.59,10.07-10,25.1-15.09,42.66-20,17.54-5.53,37.09-11.52,55.63-24.61v-16c0-35.11-10.42-50.64-34.06-50.64-15.59,0-28.13,9.5-28.13,21,0,4.53,2.56,10.59,5,15.06l-45.63,18.61c-4.48-6-6-11-6-15.59,0-24.55,46.58-57.67,90.7-57.67,41.2,0,65.75,20,65.75,56.16v112.39c0,10.49,3,17,10.57,17,6,0,14-4,24.54-13.09l4.56,9.09Zm-87.36-81.78c-53.6,31.58-61.17,34.6-61.17,59.73,0,17.52,9.6,29.56,23.56,29.56,7.51,0,12.56-3,18.14-7,4.9-4,9.05-7,19.47-14v-68.26ZM898.51,1316C875,1337,855.89,1347,839.29,1347c-19,0-28.51-10.55-28.06-31.06C787.17,1334.56,781.6,1347,752,1347c-30.55,0-52.14-20.06-52.14-48.16,0-14,4.52-26.06,13.07-34.59,10-10,25.06-15.09,42.65-20,17.52-5.53,37-11.52,55.65-24.61v-16c0-35.11-10.58-50.64-34-50.64-15.63,0-28.14,9.5-28.14,21,0,4.53,2.55,10.59,5,15.06l-45.64,18.61c-4.53-6-6-11-6-15.59,0-24.55,46.67-57.67,90.78-57.67,41.17,0,65.75,20,65.75,56.16v112.39c0,10.49,3,17,10.48,17,6,0,14-4,24.58-13.09l4.52,9.09Zm-87.27-81.78c-53.69,31.58-61.2,34.6-61.2,59.73,0,17.52,9.63,29.56,23.55,29.56,7.59,0,12.6-3,18.09-7a236.13,236.13,0,0,1,19.56-14Zm96.43-67.71v-10l68.72-22.11h12.55v50.17h1c19.54-37.11,31-50.17,44.55-50.17,7.57,0,17.1,6.49,47.24,12.54L1065.19,1188c-22.63-4.5-37.08-14.08-43.63-14.08-11.52,0-22.1,10.59-32.62,32.13v83.28c0,36.07,9.06,40.14,50.1,39.64v12.48H907.66V1329c23.1,0,33.61-8.09,33.61-37.67V1179l-33.6-12.54ZM1086.31,1026l71.78-21.17h14.43v287c0,28.57,7.61,37.14,38.22,37.14v12.48H1086.32V1329c31.61,0,38.65-10.09,38.65-40.64V1070.12c0-23-2.07-28.56-38.65-31.62V1026Zm345.74,265.84c-25.18,37.65-58.3,55.14-101.91,55.14-70.15,0-93.24-54.15-93.24-100.8,0-65.21,43.65-111.84,103.83-111.84,27.08,0,48.65,9.05,62.12,22.51,23.15,23.1,14.13,46.69,31.68,54.24v14h-150c0,55.67,30.54,92.78,74.75,92.78,21.52,0,42-11.52,63.22-35.11Zm-55.19-80.74c-4.08-41.65-19.08-63.23-44.67-63.23-26.71,0-42.73,21-47.64,63.23Zm82.79-54.65,67.75-22.11h12.54v40.11c41.72-28.09,69.77-40.11,92.23-40.11,24.66,0,40.25,13.53,46.8,41.65,41.56-28.59,71.69-41.65,93.77-41.65,33,0,50.1,25.57,50.1,68.7v85.79c0,24.57,4,40.16,33.16,40.16v12.49H1742.57V1329c20.13,0,32.7-7.56,32.7-35.62v-88.77c0-22.63-8-41.65-30.65-41.65-16.63,0-38.19,9.57-63.23,28.08v97.81c0,31.12,9.57,40.17,33.63,40.17v12.48h-113.8V1329c21,0,32.57-7.57,32.57-36.15v-84.22c0-23.62-4-45.67-30.55-45.67-17.13,0-37.2,9-63.28,28.08v98.8c0,31.1,9,39.18,33.12,39.18v12.48H1459.67v-12.48c23.59,0,32.61-11.08,32.61-37.14V1203.6c0-27.54-.93-29.08-32.61-34.66v-12.46Z"/></svg>